<?xml version="1.0" encoding="UTF-8" standalone="no"?>
<!-- Created with Inkscape (http://www.inkscape.org/) -->

<svg
   xmlns:dc="http://purl.org/dc/elements/1.1/"
   xmlns:cc="http://creativecommons.org/ns#"
   xmlns:rdf="http://www.w3.org/1999/02/22-rdf-syntax-ns#"
   xmlns:svg="http://www.w3.org/2000/svg"
   xmlns="http://www.w3.org/2000/svg"
   xmlns:sodipodi="http://sodipodi.sourceforge.net/DTD/sodipodi-0.dtd"
   xmlns:inkscape="http://www.inkscape.org/namespaces/inkscape"
   width="12.7mm"
   height="13.12031mm"
   viewBox="0 0 12.7 13.12031"
   version="1.1"
   id="svg8"
   sodipodi:docname="blood-pressure-white.svg"
   inkscape:version="0.92.4 (5da689c313, 2019-01-14)">
  <defs
     id="defs2" />
  <sodipodi:namedview
     id="base"
     pagecolor="#ffffff"
     bordercolor="#666666"
     borderopacity="1.0"
     inkscape:pageopacity="0.0"
     inkscape:pageshadow="2"
     inkscape:zoom="5.6"
     inkscape:cx="53.515481"
     inkscape:cy="37.338152"
     inkscape:document-units="mm"
     inkscape:current-layer="layer1"
     showgrid="false"
     showguides="true"
     inkscape:guide-bbox="true"
     inkscape:window-width="2560"
     inkscape:window-height="982"
     inkscape:window-x="0"
     inkscape:window-y="27"
     inkscape:window-maximized="1" />
  <metadata
     id="metadata5">
    <rdf:RDF>
      <cc:Work
         rdf:about="">
        <dc:format>image/svg+xml</dc:format>
        <dc:type
           rdf:resource="http://purl.org/dc/dcmitype/StillImage" />
        <dc:title></dc:title>
      </cc:Work>
    </rdf:RDF>
  </metadata>
  <g
     inkscape:label="Camada 1"
     inkscape:groupmode="layer"
     id="layer1"
     transform="translate(-42.207193,-34.954036)">
    <path
       style="fill:#ffffff;fill-opacity:1;stroke-width:0.15478612"
       d="m 47.317069,47.842156 c -0.02212,-0.02665 -0.150302,-0.149741 -0.150302,-0.149741 0,0 -3.244181,-0.08244 -4.95776,-0.08244 l -0.0018,-0.455224 4.95509,0.0037 v -0.631964 -0.72919 h -4.948982 v -0.509099 c 2.078662,0 4.825271,-0.06045 4.825271,-0.06045 0,0 -0.01046,-0.191063 -0.01051,-0.210424 -3.72e-4,-0.174116 -0.176242,-0.270353 -0.612577,-0.449768 -2.173383,-0.884044 -3.061011,-2.821472 -2.949609,-4.965362 0.126654,-2.580929 2.073128,-4.785502 5.067742,-4.815187 3.301667,0.08402 5.368646,2.468266 5.208861,5.380333 -0.279512,3.18227 -2.378564,4.138626 -3.068002,4.397011 -0.436768,0.224478 -0.618787,0.277543 -0.619163,0.452973 -1.05e-4,0.04879 0.0042,0.239056 0.0042,0.239056 0,0 3.038048,0.03182 4.847664,0.03182 v 0.54788 h -4.958754 v 0.690409 0.648647 l 4.953841,0.0043 c 0,0 -0.0033,0.28104 0,0.428809 -1.797036,0 -4.953029,0.04494 -4.953029,0.04494 0,0 -0.140018,0.170194 -0.155596,0.188965 -0.136482,0.16445 -0.497701,0.232179 -1.238289,0.232179 -0.740589,0 -1.101808,-0.06773 -1.238289,-0.232179 z m 2.167006,-1.589137 v -1.356958 h -0.928717 -0.928717 v 1.356958 1.356958 h 0.928717 0.928717 z m 0.660378,-1.982568 c 0.9414,-0.320767 2.03929,-1.304952 2.555768,-2.291074 0.553318,-1.056464 0.592915,-2.885729 0.08635,-3.989228 -0.421901,-0.91907 -1.33719,-1.833739 -2.30832,-2.306755 -1.075277,-0.523744 -2.770511,-0.523744 -3.845788,0 -0.97113,0.473016 -1.886419,1.387685 -2.30832,2.306755 -0.506564,1.103499 -0.466967,2.932764 0.08635,3.989228 0.49955,0.953801 1.607313,1.967787 2.492401,2.28141 0.862397,0.305581 2.359983,0.310046 3.241557,0.0097 z m -3.678707,-0.994485 c -0.05262,-0.08513 0.01704,-0.154786 0.154785,-0.154786 0.137748,0 0.207401,0.06965 0.154787,0.154786 -0.05262,0.08513 -0.122269,0.154786 -0.154787,0.154786 -0.03251,0 -0.102171,-0.06965 -0.154785,-0.154786 z m 3.869652,0 c -0.05262,-0.08513 0.01704,-0.154786 0.154787,-0.154786 0.137746,0 0.2074,0.06965 0.154786,0.154786 -0.05262,0.08513 -0.122269,0.154786 -0.154786,0.154786 -0.03252,0 -0.102172,-0.06965 -0.154787,-0.154786 z m -4.720976,-0.619144 c 0,-0.08513 0.06965,-0.154786 0.154786,-0.154786 0.08513,0 0.154786,0.06965 0.154786,0.154786 0,0.08513 -0.06965,0.154785 -0.154786,0.154785 -0.08513,0 -0.154786,-0.06965 -0.154786,-0.154785 z m 5.5723,0 c 0,-0.08513 0.06965,-0.154786 0.154786,-0.154786 0.08513,0 0.154786,0.06965 0.154786,0.154786 0,0.08513 -0.06965,0.154785 -0.154786,0.154785 -0.08513,0 -0.154786,-0.06965 -0.154786,-0.154785 z m -6.114051,-0.773931 c -0.05262,-0.08513 -0.0219,-0.154786 0.06826,-0.154786 0.09016,0 0.163921,0.06965 0.163921,0.154786 0,0.08513 -0.03071,0.154786 -0.06826,0.154786 -0.03754,0 -0.111307,-0.06965 -0.163921,-0.154786 z m 6.733195,0 c 0,-0.08513 0.07377,-0.154786 0.163921,-0.154786 0.09016,0 0.120873,0.06965 0.06826,0.154786 -0.05262,0.08513 -0.12638,0.154786 -0.163921,0.154786 -0.03754,0 -0.06826,-0.06965 -0.06826,-0.154786 z m -7.120161,-0.928717 c 0,-0.08513 0.06965,-0.154786 0.154786,-0.154786 0.08513,0 0.154786,0.06965 0.154786,0.154786 0,0.08513 -0.06965,0.154787 -0.154786,0.154787 -0.08513,0 -0.154786,-0.06965 -0.154786,-0.154787 z m 7.429734,0 c 0,-0.08513 0.06965,-0.154786 0.154786,-0.154786 0.08513,0 0.154786,0.06965 0.154786,0.154786 0,0.08513 -0.06965,0.154787 -0.154786,0.154787 -0.08513,0 -0.154786,-0.06965 -0.154786,-0.154787 z m -7.58452,-1.083502 c 0,-0.08513 0.06965,-0.154786 0.154786,-0.154786 0.08513,0 0.154786,0.06965 0.154786,0.154786 0,0.08513 -0.06965,0.154785 -0.154786,0.154785 -0.08513,0 -0.154786,-0.06965 -0.154786,-0.154785 z m 0.773931,0 c 0,-0.08513 0.06965,-0.154786 0.154786,-0.154786 0.08513,0 0.154786,0.06965 0.154786,0.154786 0,0.08513 -0.06965,0.154785 -0.154786,0.154785 -0.08513,0 -0.154786,-0.06965 -0.154786,-0.154785 z m 6.191444,0 c 0,-0.08513 0.06965,-0.154786 0.154786,-0.154786 0.08513,0 0.154786,0.06965 0.154786,0.154786 0,0.08513 -0.06965,0.154785 -0.154786,0.154785 -0.08513,0 -0.154786,-0.06965 -0.154786,-0.154785 z m 0.773931,0 c 0,-0.08513 0.06965,-0.154786 0.154786,-0.154786 0.08513,0 0.154786,0.06965 0.154786,0.154786 0,0.08513 -0.06965,0.154785 -0.154786,0.154785 -0.08513,0 -0.154786,-0.06965 -0.154786,-0.154785 z m -7.58452,-0.928717 c 0,-0.08513 0.06965,-0.154786 0.154786,-0.154786 0.08513,0 0.154786,0.06965 0.154786,0.154786 0,0.08513 -0.06965,0.154786 -0.154786,0.154786 -0.08513,0 -0.154786,-0.06965 -0.154786,-0.154786 z m 7.429734,0 c 0,-0.08513 0.06965,-0.154786 0.154786,-0.154786 0.08513,0 0.154786,0.06965 0.154786,0.154786 0,0.08513 -0.06965,0.154786 -0.154786,0.154786 -0.08513,0 -0.154786,-0.06965 -0.154786,-0.154786 z m -7.042768,-0.928717 c -0.05262,-0.08513 -0.0219,-0.154786 0.06826,-0.154786 0.09016,0 0.163921,0.06965 0.163921,0.154786 0,0.08513 -0.03071,0.154786 -0.06826,0.154786 -0.03754,0 -0.111307,-0.06965 -0.163921,-0.154786 z m 6.733195,0 c 0,-0.08513 0.07377,-0.154786 0.163921,-0.154786 0.09016,0 0.120873,0.06965 0.06826,0.154786 -0.05262,0.08513 -0.12638,0.154786 -0.163921,0.154786 -0.03754,0 -0.06826,-0.06965 -0.06826,-0.154786 z m -5.488296,-0.14409 c -0.04898,-0.07925 -0.01827,-0.187842 0.06826,-0.241315 0.08652,-0.05347 0.157312,0.01137 0.157312,0.144091 0,0.271886 -0.09288,0.311918 -0.225569,0.09722 z m -0.619145,-0.619145 c -0.04898,-0.07925 -0.01826,-0.187841 0.06826,-0.241314 0.08652,-0.05347 0.157311,0.01137 0.157311,0.144091 0,0.271885 -0.09288,0.311918 -0.225569,0.09722 z m 5.488297,-0.09722 c 0,-0.132723 0.07079,-0.197564 0.157311,-0.144091 0.08652,0.05347 0.117237,0.162064 0.06826,0.241314 -0.132689,0.214695 -0.225569,0.174662 -0.225569,-0.09722 z m -2.78615,-0.377831 c 0,-0.08513 0.06965,-0.154786 0.154786,-0.154786 0.08513,0 0.154786,0.06965 0.154786,0.154786 0,0.08513 -0.06965,0.154786 -0.154786,0.154786 -0.08513,0 -0.154786,-0.06965 -0.154786,-0.154786 z m -1.926656,-0.141566 c -0.04984,-0.08064 -0.02464,-0.187391 0.056,-0.237229 0.08064,-0.04984 0.187391,-0.02464 0.237228,0.056 0.04984,0.08064 0.02464,0.187392 -0.056,0.237229 -0.08064,0.04984 -0.187391,0.02463 -0.237228,-0.056 z m 3.869653,0 c -0.04984,-0.08064 -0.02464,-0.187391 0.056,-0.237229 0.08064,-0.04984 0.187391,-0.02464 0.237229,0.056 0.04984,0.08064 0.02463,0.187392 -0.056,0.237229 -0.08064,0.04984 -0.187391,0.02463 -0.237229,-0.056 z M 47.396022,36.15328 c 0.05347,-0.08652 0.162065,-0.117237 0.241315,-0.06826 0.214695,0.132689 0.174662,0.225569 -0.09722,0.225569 -0.132722,0 -0.197564,-0.07079 -0.144091,-0.157311 z m 2.01222,0 c 0.05347,-0.08652 0.162064,-0.117237 0.241315,-0.06826 0.214694,0.132689 0.174661,0.225569 -0.09722,0.225569 -0.132723,0 -0.197564,-0.07079 -0.144091,-0.157311 z m -1.00767,-0.152262 c 0,-0.08513 0.06965,-0.154786 0.154786,-0.154786 0.08513,0 0.154786,0.06965 0.154786,0.154786 0,0.08513 -0.06965,0.154787 -0.154786,0.154787 -0.08513,0 -0.154786,-0.06965 -0.154786,-0.154787 z m -3.714867,10.835029 c 0,-0.08513 0.06965,-0.154786 0.154786,-0.154786 0.08513,0 0.154786,0.06965 0.154786,0.154786 0,0.08513 -0.06965,0.154786 -0.154786,0.154786 -0.08513,0 -0.154786,-0.06965 -0.154786,-0.154786 z m 7.429734,0 c 0,-0.08513 0.06965,-0.154786 0.154786,-0.154786 0.08513,0 0.154786,0.06965 0.154786,0.154786 0,0.08513 -0.06965,0.154786 -0.154786,0.154786 -0.08513,0 -0.154786,-0.06965 -0.154786,-0.154786 z m -7.429734,-0.773931 c 0,-0.08513 0.06965,-0.154786 0.154786,-0.154786 0.08513,0 0.154786,0.06965 0.154786,0.154786 0,0.08513 -0.06965,0.154786 -0.154786,0.154786 -0.08513,0 -0.154786,-0.06965 -0.154786,-0.154786 z m 7.429734,0 c 0,-0.08513 0.06965,-0.154786 0.154786,-0.154786 0.08513,0 0.154786,0.06965 0.154786,0.154786 0,0.08513 -0.06965,0.154786 -0.154786,0.154786 -0.08513,0 -0.154786,-0.06965 -0.154786,-0.154786 z"
       id="path826"
       inkscape:connector-curvature="0"
       sodipodi:nodetypes="cccccccccccccccccccccccccccsscscccccccscsssssssccssccssscsscssscssscssscsssssssssssssssssssssssssssssssscssscssscscscscccsccssccsccsscsscssccsscccccccccccssccsscsssssssssssssssssssssssssssssssss" />
    <path
       style="fill:none;fill-rule:evenodd;stroke:#ffffff;stroke-width:0.2925092;stroke-miterlimit:4;stroke-dasharray:none;stroke-opacity:1"
       d="m 50.532318,38.081988 -1.840201,1.479538 c -0.04206,-0.01028 -0.08519,-0.01556 -0.128484,-0.01572 -0.303714,-1.1e-5 -0.549925,0.2462 -0.549914,0.549914 1.54e-4,0.303595 0.246318,0.549622 0.549914,0.549611 0.303595,1.1e-5 0.549757,-0.246016 0.549913,-0.549611 -2.47e-4,-0.04383 -0.0057,-0.08747 -0.01633,-0.129996 z"
       id="path830"
       inkscape:connector-curvature="0"
       sodipodi:nodetypes="cccccccc" />
  </g>
</svg>
