<?xml version="1.0" encoding="UTF-8" standalone="no"?>
<!-- Created with Inkscape (http://www.inkscape.org/) -->

<svg
   xmlns:dc="http://purl.org/dc/elements/1.1/"
   xmlns:cc="http://creativecommons.org/ns#"
   xmlns:rdf="http://www.w3.org/1999/02/22-rdf-syntax-ns#"
   xmlns:svg="http://www.w3.org/2000/svg"
   xmlns="http://www.w3.org/2000/svg"
   xmlns:sodipodi="http://sodipodi.sourceforge.net/DTD/sodipodi-0.dtd"
   xmlns:inkscape="http://www.inkscape.org/namespaces/inkscape"
   version="1.1"
   id="svg936"
   width="48"
   height="47.767857"
   viewBox="0 0 47.999999 47.767856"
   sodipodi:docname="blood-glucose.svg"
   inkscape:version="0.92.4 (5da689c313, 2019-01-14)">
  <metadata
     id="metadata942">
    <rdf:RDF>
      <cc:Work
         rdf:about="">
        <dc:format>image/svg+xml</dc:format>
        <dc:type
           rdf:resource="http://purl.org/dc/dcmitype/StillImage" />
        <dc:title />
      </cc:Work>
    </rdf:RDF>
  </metadata>
  <defs
     id="defs940" />
  <sodipodi:namedview
     pagecolor="#ffffff"
     bordercolor="#666666"
     borderopacity="1"
     objecttolerance="10"
     gridtolerance="10"
     guidetolerance="10"
     inkscape:pageopacity="0"
     inkscape:pageshadow="2"
     inkscape:window-width="2560"
     inkscape:window-height="982"
     id="namedview938"
     showgrid="false"
     inkscape:zoom="16.012153"
     inkscape:cx="25.015298"
     inkscape:cy="20.644944"
     inkscape:window-x="0"
     inkscape:window-y="27"
     inkscape:window-maximized="1"
     inkscape:current-layer="svg936" />
  <path
     style="fill:#000000;stroke-width:4.173913"
     d=""
     id="path950"
     inkscape:connector-curvature="0" />
  <path
     style="fill:#000000;stroke-width:4.173913"
     d=""
     id="path946"
     inkscape:connector-curvature="0" />
  <path
     style="fill:none;stroke:#00a594;stroke-width:1.44181204;stroke-linecap:butt;stroke-linejoin:round;stroke-miterlimit:4;stroke-dasharray:none;stroke-opacity:1"
     d="m 8.0537465,15.208276 c 0,0 -7.98116306,3.21629 -7.14731006,9.410625 0.83385306,6.194336 5.36048306,15.962326 5.36048306,15.962326 0,0 1.905949,7.028189 10.4827225,4.883996 8.576771,-2.144194 13.04384,-4.764874 13.04384,-4.764874 0,0 5.631864,-1.820477 4.230066,-6.258129 -1.033111,-3.270507 -3.098407,-3.033374 -3.098407,-3.033374 0,0 1.733581,-0.478256 2.533636,-1.696501 0.436513,-0.664678 0.269763,-1.815847 0.143613,-2.614803 -0.18265,-0.855419 -0.467768,-1.820837 -1.094989,-2.397451 -0.599984,-0.551576 -1.52016,-0.725911 -2.654358,-1.034164 0,0 1.336146,-0.823647 1.980911,-1.32518 1.452726,-1.130012 1.783819,-6.404514 -2.933885,-5.822131 l 16.65538,-5.969304 c 0,0 2.733815,-1.1261849 1.57026,-4.7516611 C 46.172735,3.7725796 45.10064,1.985752 40.931375,2.9387267 36.76211,3.8917015 8.0537465,15.208276 8.0537465,15.208276 Z"
     id="path952"
     inkscape:connector-curvature="0"
     sodipodi:nodetypes="cscscscscscscccsc" />
  <path
     style="fill:none;stroke:#00a594;stroke-width:1.44181204;stroke-linecap:butt;stroke-linejoin:miter;stroke-miterlimit:4;stroke-dasharray:none;stroke-opacity:1"
     d="m 43.123562,17.298128 -3.275852,6.194336 c 0,0 -3.811897,7.623797 2.739804,7.742919 6.5517,0.119122 4.943556,-8.159846 0.536048,-13.937255 z"
     id="path954"
     inkscape:connector-curvature="0" />
</svg>
