<?xml version="1.0" encoding="UTF-8" standalone="no"?>
<!-- Created with Inkscape (http://www.inkscape.org/) -->

<svg
   xmlns:dc="http://purl.org/dc/elements/1.1/"
   xmlns:cc="http://creativecommons.org/ns#"
   xmlns:rdf="http://www.w3.org/1999/02/22-rdf-syntax-ns#"
   xmlns:svg="http://www.w3.org/2000/svg"
   xmlns="http://www.w3.org/2000/svg"
   xmlns:sodipodi="http://sodipodi.sourceforge.net/DTD/sodipodi-0.dtd"
   xmlns:inkscape="http://www.inkscape.org/namespaces/inkscape"
   width="9.5739098mm"
   height="12.596313mm"
   viewBox="0 0 9.5739092 12.596313"
   version="1.1"
   id="svg8"
   inkscape:version="0.92.4 (5da689c313, 2019-01-14)"
   sodipodi:docname="fat.svg">
  <defs
     id="defs2" />
  <sodipodi:namedview
     id="base"
     pagecolor="#ffffff"
     bordercolor="#666666"
     borderopacity="1.0"
     inkscape:pageopacity="0.0"
     inkscape:pageshadow="2"
     inkscape:zoom="8"
     inkscape:cx="-48.844417"
     inkscape:cy="3.3535274"
     inkscape:document-units="mm"
     inkscape:current-layer="layer1"
     showgrid="false"
     inkscape:window-width="2560"
     inkscape:window-height="982"
     inkscape:window-x="0"
     inkscape:window-y="27"
     inkscape:window-maximized="1" />
  <metadata
     id="metadata5">
    <rdf:RDF>
      <cc:Work
         rdf:about="">
        <dc:format>image/svg+xml</dc:format>
        <dc:type
           rdf:resource="http://purl.org/dc/dcmitype/StillImage" />
        <dc:title></dc:title>
      </cc:Work>
    </rdf:RDF>
  </metadata>
  <g
     inkscape:label="Camada 1"
     inkscape:groupmode="layer"
     id="layer1"
     transform="translate(-84.669454,-73.306359)">
    <path
       style="fill:#00a594;stroke-width:0.13774906;fill-opacity:1"
       d="m 89.341108,73.306359 c -0.778568,0.0038 -1.548082,0.561907 -1.583844,1.577362 0,0.561371 0.109292,0.714727 0.4046,1.09933 0.177472,0.231145 0.372206,0.339086 0.372206,0.339086 -1.273971,0.182305 -2.28982,1.049131 -3.162646,2.066195 -0.695297,1.147 -0.774557,2.162698 -0.657298,2.629898 0.107454,0.428122 0.448125,0.759524 0.780403,0.759524 0.393082,0 0.672528,-0.302357 0.816401,-0.953184 l 0.175662,-0.794801 c 0,0 0.174179,0.328113 0.319649,0.614819 0.302723,0.596633 0.329919,0.815881 0.330446,2.620538 5.64e-4,1.906707 0.0117,1.979987 0.339085,2.307371 0.429036,0.42903 0.863958,0.445593 1.29299,0.01656 0.318164,-0.318168 0.297331,-0.444379 0.297331,-1.876133 0,-0.980747 0.0019,-1.40339 0.01296,-1.474413 0.151886,-0.03576 0.172262,-0.0539 0.374365,-0.0288 l 0.0029,-0.569464 H 89.341133 88.57153 c -0.03363,0.0046 -0.04893,0.0172 -0.04896,0.05255 l -0.03816,1.772464 c 0,0 -0.01337,1.653949 -0.02952,1.727828 -0.01613,0.07388 -0.09071,0.09719 -0.09071,0.09719 h -0.262745 -0.232537 c -0.136626,-0.04132 -0.114475,-0.155506 -0.114475,-0.155506 l -0.03527,-1.963244 c -0.03344,-1.858614 -0.07164,-2.166441 -0.312451,-2.504631 -0.151006,-0.212066 -0.578103,-0.899191 -0.578103,-0.899191 -0.175281,-0.275463 0.06155,-0.709921 -0.223178,-0.720648 -0.234324,0.184302 -0.457463,0.398749 -0.7804,1.353465 -0.100822,0.489691 -0.224815,0.757365 -0.351326,0.757365 -0.316646,0 -0.305466,-0.775193 0.02375,-1.655115 0.581222,-1.553449 2.199615,-2.683892 3.8437,-2.683892 0.03025,0 0.06048,0.0019 0.09071,0.0036 v 0.0022 c 0.0082,-3.18e-4 0.01633,-3.04e-4 0.02448,-7.21e-4 0.0081,4.14e-4 0.01633,4.03e-4 0.02448,7.21e-4 v -0.0022 c 0.03023,-0.0017 0.06046,-0.0036 0.09071,-0.0036 1.644085,0 3.262474,1.130443 3.843696,2.683892 0.329226,0.879922 0.340405,1.655115 0.02375,1.655115 -0.126512,0 -0.250504,-0.267674 -0.351328,-0.757365 -0.322937,-0.954716 -0.546075,-1.169163 -0.780403,-1.353465 -0.284732,0.01073 -0.0479,0.445185 -0.223178,0.720648 0,0 -0.427093,0.687125 -0.578099,0.899191 -0.240819,0.33819 -0.279015,0.646017 -0.31245,2.504631 l -0.03527,1.963244 c 0,0 0.02217,0.114182 -0.114475,0.155506 h -0.232537 -0.262774 c 0,0 -0.07458,-0.02331 -0.09071,-0.09719 -0.0161,-0.07388 -0.02952,-1.727828 -0.02952,-1.727828 l -0.03743,-1.772464 c -3.6e-5,-0.03534 -0.01533,-0.04799 -0.04896,-0.05255 h -0.770322 -0.115172 l -0.0029,0.569464 c 0.202102,-0.0251 0.22903,-0.007 0.380917,0.0288 0.011,0.07102 0.01226,0.493666 0.01226,1.474413 0,1.431754 -0.0201,1.557965 0.298053,1.876133 0.429032,0.429035 0.863236,0.412472 1.292271,-0.01656 0.327402,-0.327384 0.338518,-0.400664 0.339086,-2.307371 5.27e-4,-1.804657 0.02772,-2.023905 0.330446,-2.620538 0.145469,-0.286706 0.319649,-0.614819 0.319649,-0.614819 l 0.175661,0.794801 c 0.143874,0.650827 0.423319,0.953184 0.816402,0.953184 0.332276,0 0.672948,-0.331402 0.780399,-0.759524 0.117261,-0.4672 0.03872,-1.482898 -0.656575,-2.629898 -0.872827,-1.017064 -1.888675,-1.88389 -3.162646,-2.066195 0,0 0.194011,-0.107941 0.371486,-0.339086 0.295306,-0.384603 0.404597,-0.537959 0.404597,-1.09933 -0.03576,-1.015455 -0.805272,-1.573671 -1.58384,-1.577362 -0.0456,0 -0.07898,0.0029 -0.115185,0.005 -0.03596,-0.0021 -0.06916,-0.005 -0.114475,-0.005 z m 0,0.482351 c 0.106673,-0.0036 0.113876,-0.0029 0.230371,0 0.962987,0 1.447104,1.182073 0.763842,1.865334 -0.21313,0.213132 -0.495454,0.338366 -0.763842,0.338366 -0.1034,0.0053 -0.131764,0.0057 -0.230371,0 -0.268388,0 -0.550716,-0.12523 -0.763845,-0.338366 -0.683262,-0.683261 -0.199142,-1.865334 0.763845,-1.865334 z"
       id="path1083"
       inkscape:connector-curvature="0"
       sodipodi:nodetypes="ccccccsccccccscccccccccccccscccscscccccscscccccccccccccccccsccccccscccccccscccccccc" />
  </g>
</svg>
