<?xml version="1.0" encoding="UTF-8" standalone="no"?>
<!-- Created with Inkscape (http://www.inkscape.org/) -->

<svg
   xmlns:dc="http://purl.org/dc/elements/1.1/"
   xmlns:cc="http://creativecommons.org/ns#"
   xmlns:rdf="http://www.w3.org/1999/02/22-rdf-syntax-ns#"
   xmlns:svg="http://www.w3.org/2000/svg"
   xmlns="http://www.w3.org/2000/svg"
   xmlns:sodipodi="http://sodipodi.sourceforge.net/DTD/sodipodi-0.dtd"
   xmlns:inkscape="http://www.inkscape.org/namespaces/inkscape"
   width="12.868268mm"
   height="12.52575mm"
   viewBox="0 0 12.868268 12.52575"
   version="1.1"
   id="svg8"
   inkscape:version="0.92.4 (5da689c313, 2019-01-14)"
   sodipodi:docname="height.svg">
  <defs
     id="defs2" />
  <sodipodi:namedview
     id="base"
     pagecolor="#ffffff"
     bordercolor="#666666"
     borderopacity="1.0"
     inkscape:pageopacity="0.0"
     inkscape:pageshadow="2"
     inkscape:zoom="7.9195959"
     inkscape:cx="75.834088"
     inkscape:cy="9.7049741"
     inkscape:document-units="mm"
     inkscape:current-layer="layer1"
     showgrid="false"
     inkscape:window-width="2560"
     inkscape:window-height="982"
     inkscape:window-x="0"
     inkscape:window-y="27"
     inkscape:window-maximized="1" />
  <metadata
     id="metadata5">
    <rdf:RDF>
      <cc:Work
         rdf:about="">
        <dc:format>image/svg+xml</dc:format>
        <dc:type
           rdf:resource="http://purl.org/dc/dcmitype/StillImage" />
        <dc:title></dc:title>
      </cc:Work>
    </rdf:RDF>
  </metadata>
  <g
     inkscape:label="Camada 1"
     inkscape:groupmode="layer"
     id="layer1"
     transform="translate(-5.3899962,-274.79914)">
    <g
       id="g829"
       transform="matrix(-4.7991958e-4,0.0211077,-0.0211077,-4.7991958e-4,18.316807,274.85802)"
       style="fill:#00a594;fill-opacity:1">
      <path
         id="path815"
         d="M 593.69141,460.24219 141.27734,7.824219 c -10.47265,-10.433594 -27.41015,-10.433594 -37.89062,0 L 7.824219,103.39062 c -10.433594,10.47657 -10.433594,27.41407 0,37.88672 L 460.24219,593.69141 c 10.46875,10.4375 27.41406,10.4375 37.88281,0 l 95.56641,-95.5586 c 10.4375,-10.47656 10.4375,-27.42187 0,-37.89062 z m -11.05079,26.83593 -95.5625,95.5625 c -4.375,4.32422 -11.41406,4.32422 -15.78906,0 l -40.82812,-40.8164 55.67968,-55.6836 c 3.05079,-3.04687 3.05079,-7.99609 0,-11.04296 -3.04687,-3.05469 -7.99609,-3.05469 -11.04296,0 l -55.74219,55.67578 -28.96485,-28.95703 24.96875,-24.97266 c 3.04688,-3.05078 3.04688,-7.99609 0,-11.05078 -3.05468,-3.04688 -7.99609,-3.04688 -11.05078,0 l -24.96875,24.96875 -28.64843,-28.89844 24.96484,-24.96875 c 3.12109,-3.06641 3.16406,-8.08203 0.0977,-11.20312 -3.07032,-3.1211 -8.08594,-3.16407 -11.19922,-0.0937 l -24.97266,24.96875 -28.96484,-28.96485 55.67968,-55.67969 c 3.05079,-3.04687 3.05079,-7.99218 0,-11.04687 -3.05078,-3.05078 -7.99609,-3.05078 -11.04296,0 l -55.74219,55.99219 -28.96485,-28.96094 24.96485,-24.96875 c 3.05469,-3.05078 3.05469,-8 0,-11.05078 -3.04688,-3.04688 -7.99219,-3.04688 -11.04688,0 L 259.5,370.85156 230.59766,341.95703 255.57031,316.98437 c 3.06641,-3.03125 3.08985,-7.97656 0.0586,-11.04296 -3.03125,-3.07032 -7.98047,-3.09766 -11.05079,-0.0625 l -24.96484,24.96484 -28.96094,-28.83984 55.67578,-55.67579 c 3.05469,-3.04687 3.05469,-8 0,-11.04687 -3.04687,-3.05078 -8,-3.05078 -11.04687,0 l -55.68359,55.67969 -28.64844,-28.90235 24.96875,-24.96484 c 3.10547,-3.08594 3.11719,-8.10156 0.0273,-11.20703 -3.08203,-3.10156 -8.10156,-3.1211 -11.19922,-0.0273 l -24.96875,24.96875 -28.95703,-28.96875 24.96485,-24.96484 c 3.05078,-3.04687 3.05078,-8 0,-11.04687 -3.0586,-3.05469 -8,-3.05469 -11.04688,0 L 99.769531,210.8125 70.746094,182.16797 126.41797,126.48828 c 3.0664,-3.05078 3.08594,-8.01172 0.0352,-11.07812 -3.05079,-3.06641 -8.01172,-3.08594 -11.07813,-0.0352 L 59.691406,171.05469 18.871094,130.23437 c -4.320313,-4.38281 -4.320313,-11.42187 0,-15.79687 L 114.4375,18.875 c 2.09766,-2.113281 4.94922,-3.296875 7.92578,-3.296875 2.97656,0 5.83203,1.183594 7.92969,3.296875 l 452.41015,452.41406 c 4.32813,4.375 4.32813,11.41406 0,15.78906 z m 0,0"
         inkscape:connector-curvature="0"
         style="fill:#00a594;fill-opacity:1" />
    </g>
  </g>
</svg>
