<?xml version="1.0" encoding="UTF-8" standalone="no"?>
<!-- Created with Inkscape (http://www.inkscape.org/) -->

<svg
   xmlns:dc="http://purl.org/dc/elements/1.1/"
   xmlns:cc="http://creativecommons.org/ns#"
   xmlns:rdf="http://www.w3.org/1999/02/22-rdf-syntax-ns#"
   xmlns:svg="http://www.w3.org/2000/svg"
   xmlns="http://www.w3.org/2000/svg"
   xmlns:sodipodi="http://sodipodi.sourceforge.net/DTD/sodipodi-0.dtd"
   xmlns:inkscape="http://www.inkscape.org/namespaces/inkscape"
   width="12.699997mm"
   height="11.179564mm"
   viewBox="0 0 12.699997 11.179564"
   version="1.1"
   id="svg8"
   inkscape:version="0.92.4 (5da689c313, 2019-01-14)"
   sodipodi:docname="pulse.svg">
  <defs
     id="defs2" />
  <sodipodi:namedview
     id="base"
     pagecolor="#ffffff"
     bordercolor="#666666"
     borderopacity="1.0"
     inkscape:pageopacity="0.0"
     inkscape:pageshadow="2"
     inkscape:zoom="11.2"
     inkscape:cx="30.116561"
     inkscape:cy="25.274314"
     inkscape:document-units="mm"
     inkscape:current-layer="layer1"
     showgrid="false"
     inkscape:window-width="2560"
     inkscape:window-height="982"
     inkscape:window-x="0"
     inkscape:window-y="27"
     inkscape:window-maximized="1" />
  <metadata
     id="metadata5">
    <rdf:RDF>
      <cc:Work
         rdf:about="">
        <dc:format>image/svg+xml</dc:format>
        <dc:type
           rdf:resource="http://purl.org/dc/dcmitype/StillImage" />
        <dc:title />
      </cc:Work>
    </rdf:RDF>
  </metadata>
  <g
     inkscape:label="Camada 1"
     inkscape:groupmode="layer"
     id="layer1"
     transform="translate(-1.3540312,-90.183574)">
    <path
       inkscape:connector-curvature="0"
       style="fill:#00a594;fill-opacity:1;stroke-width:0.3;stroke:#00a594;stroke-miterlimit:4;stroke-dasharray:none;stroke-opacity:1"
       d="m 7.3740205,101.36222 c 0.058648,0.006 0.1143636,-0.0177 0.1524849,-0.0621 L 11.05125,98.043634 c 0.09384,-0.07388 0.108499,-0.209812 0.03519,-0.304376 -0.0059,-0.0059 -0.01173,-0.01478 -0.01759,-0.02069 -0.07331,-0.09456 -0.208201,-0.109339 -0.302038,-0.03546 -0.0059,0.0059 -0.01466,0.01182 -0.02053,0.01773 L 7.391615,100.8037 2.7320314,96.099175 c -0.595277,-0.596931 -0.9295706,-1.406629 -0.9354358,-2.254744 0.00587,-1.764198 1.4310113,-3.191513 3.1816541,-3.185603 0.8357341,0.003 1.6333468,0.336882 2.2256917,0.930858 h 0.014662 c 0.08504,0.09161 0.2287272,0.100473 0.322564,0.01478 h 0.014662 c 1.2169461,-1.244099 3.2051136,-1.258875 4.4425856,-0.03251 0.01173,0.01182 0.02053,0.02069 0.03226,0.03251 0.730167,0.735821 1.055664,1.784883 0.873855,2.810304 -0.01759,0.124114 0.06158,0.239363 0.184742,0.263004 0.126092,0.02069 0.246321,-0.06206 0.275645,-0.186171 0.357753,-1.988786 -0.95303,-3.891873 -2.926535,-4.249441 -1.0996504,-0.200947 -2.2286244,0.12116 -3.0643585,0.871756 -1.5336452,-1.303201 -3.9118216,-1.193862 -5.2050099,0.348703 -1.19055409,1.42436 -1.0439348,3.608182 0.2257946,4.96162 l 4.8267306,4.875919 c 0.041054,0.0443 0.096769,0.065 0.1524847,0.0621 z"
       id="path815" />
    <path
       inkscape:connector-curvature="0"
       style="fill:#00a594;fill-opacity:1;stroke-width:0.3;stroke-miterlimit:4;stroke-dasharray:none;stroke:#00a594;stroke-opacity:1"
       d="m 7.8813259,98.212075 h 0.029324 c 0.082107,-0.0059 0.1554171,-0.06206 0.1847412,-0.13889 l 1.6861299,-4.089864 0.859193,2.361128 c 0.03226,0.09161 0.117296,0.153666 0.214065,0.153666 H 13.8253 c 0.126094,0 0.228728,-0.103429 0.228728,-0.230499 0,-0.127069 -0.102634,-0.230498 -0.228728,-0.230498 H 11.021926 L 10.010248,93.274096 C 9.983857,93.185446 9.9046818,93.123385 9.8108451,93.12043 9.7140761,93.11743 9.6231714,93.17067 9.5821179,93.25932 L 7.8197454,97.535356 6.6409206,96.128727 c -0.038121,-0.0591 -0.099702,-0.09161 -0.1671469,-0.09161 H 5.5559325 c -0.1260932,0 -0.2287272,0.103429 -0.2287272,0.230498 0,0.12707 0.102634,0.230499 0.2287272,0.230499 v 0 h 0.8122748 l 1.348904,1.637127 c 0.038121,0.04728 0.099702,0.07683 0.1642146,0.07683 z"
       id="path817" />
    <g
       id="g819"
       transform="matrix(0.26458333,0,0,0.26458333,0.91382752,-5.9789443)" />
    <g
       id="g821"
       transform="matrix(0.26458333,0,0,0.26458333,0.91382752,-5.9789443)" />
    <g
       id="g823"
       transform="matrix(0.26458333,0,0,0.26458333,0.91382752,-5.9789443)" />
    <g
       id="g825"
       transform="matrix(0.26458333,0,0,0.26458333,0.91382752,-5.9789443)" />
    <g
       id="g827"
       transform="matrix(0.26458333,0,0,0.26458333,0.91382752,-5.9789443)" />
    <g
       id="g829"
       transform="matrix(0.26458333,0,0,0.26458333,0.91382752,-5.9789443)" />
    <g
       id="g831"
       transform="matrix(0.26458333,0,0,0.26458333,0.91382752,-5.9789443)" />
    <g
       id="g833"
       transform="matrix(0.26458333,0,0,0.26458333,0.91382752,-5.9789443)" />
    <g
       id="g835"
       transform="matrix(0.26458333,0,0,0.26458333,0.91382752,-5.9789443)" />
    <g
       id="g837"
       transform="matrix(0.26458333,0,0,0.26458333,0.91382752,-5.9789443)" />
    <g
       id="g839"
       transform="matrix(0.26458333,0,0,0.26458333,0.91382752,-5.9789443)" />
    <g
       id="g841"
       transform="matrix(0.26458333,0,0,0.26458333,0.91382752,-5.9789443)" />
    <g
       id="g843"
       transform="matrix(0.26458333,0,0,0.26458333,0.91382752,-5.9789443)" />
    <g
       id="g845"
       transform="matrix(0.26458333,0,0,0.26458333,0.91382752,-5.9789443)" />
    <g
       id="g847"
       transform="matrix(0.26458333,0,0,0.26458333,0.91382752,-5.9789443)" />
  </g>
</svg>
