<?xml version="1.0" encoding="UTF-8" standalone="no"?>
<!-- Created with Inkscape (http://www.inkscape.org/) -->

<svg
   xmlns:dc="http://purl.org/dc/elements/1.1/"
   xmlns:cc="http://creativecommons.org/ns#"
   xmlns:rdf="http://www.w3.org/1999/02/22-rdf-syntax-ns#"
   xmlns:svg="http://www.w3.org/2000/svg"
   xmlns="http://www.w3.org/2000/svg"
   xmlns:sodipodi="http://sodipodi.sourceforge.net/DTD/sodipodi-0.dtd"
   xmlns:inkscape="http://www.inkscape.org/namespaces/inkscape"
   width="5.5259204mm"
   height="12.700002mm"
   viewBox="0 0 5.5259206 12.700001"
   version="1.1"
   id="svg8"
   inkscape:version="0.92.4 (5da689c313, 2019-01-14)"
   sodipodi:docname="temperature-white.svg">
  <defs
     id="defs2" />
  <sodipodi:namedview
     id="base"
     pagecolor="#ffffff"
     bordercolor="#666666"
     borderopacity="1.0"
     inkscape:pageopacity="0.0"
     inkscape:pageshadow="2"
     inkscape:zoom="2.8"
     inkscape:cx="142.02496"
     inkscape:cy="62.066597"
     inkscape:document-units="mm"
     inkscape:current-layer="layer1"
     showgrid="false"
     inkscape:window-width="2560"
     inkscape:window-height="982"
     inkscape:window-x="0"
     inkscape:window-y="27"
     inkscape:window-maximized="1" />
  <metadata
     id="metadata5">
    <rdf:RDF>
      <cc:Work
         rdf:about="">
        <dc:format>image/svg+xml</dc:format>
        <dc:type
           rdf:resource="http://purl.org/dc/dcmitype/StillImage" />
        <dc:title />
      </cc:Work>
    </rdf:RDF>
  </metadata>
  <g
     inkscape:label="Camada 1"
     inkscape:groupmode="layer"
     id="layer1"
     transform="translate(-62.977058,-91.173043)">
    <path
       style="fill:#ffffff;fill-opacity:1;stroke-width:0.12663943"
       d="m 64.801976,103.69622 c -0.278606,-0.0986 -0.743677,-0.42934 -1.033489,-0.73496 -1.0478,-1.10495 -1.055696,-2.51637 -0.02065,-3.692238 l 0.484267,-0.550157 v -3.190333 c 0,-1.78401 -0.143064,-2.053854 0.02582,-3.254273 0.652105,-1.890216 2.860142,-0.966512 3.013523,-0.04218 0.11377,0.309784 0,3.243392 0,3.243392 v 3.243392 l 0.495074,0.562434 c 0.778083,0.883953 0.957814,2.112783 0.452064,3.090803 -0.265587,0.51359 -1.131835,1.23033 -1.666351,1.37875 -0.641688,0.17819 -1.136056,0.16276 -1.750255,-0.0546 z m 1.904831,-0.42755 c 0.812899,-0.36925 1.449701,-1.32162 1.449701,-2.16811 0,-0.48006 -0.289436,-1.127774 -0.755974,-1.691761 L 66.891527,98.793473 V 96.97099 95.148508 h -1.139755 c -1.123016,0 -1.127762,3.7e-4 -1.127762,3.7e-4 0,0.121905 0.01062,0.600638 0.01062,0.600638 l 0.601747,0.0075 0.01199,0.381394 -0.58705,-9.8e-5 0.0061,0.658541 c 0,0 0.772535,-0.002 1.056684,-0.002 l 0.0159,0.35554 -1.058368,0.04658 -0.0097,0.641485 0.666309,0.0095 0.004,0.312696 c -0.122228,0.01447 -0.704899,0.02543 -0.704899,0.02543 l 0.0026,0.54406 1.064061,0.0087 0.01691,0.355539 c -0.696971,0 -1.607624,0.174663 -1.974415,0.771414 -0.955572,1.554673 0.192118,3.635423 2.005211,3.635423 0.243781,0 0.673547,-0.10462 0.955035,-0.23248 z m 0.165722,-1.27642 c 0.0072,-0.0711 0.120421,-0.25549 0.15372,-0.34308 0.0652,-0.1715 0.11056,-0.28794 0.11056,-0.49816 0,-0.0927 -0.0055,-0.41743 -0.0055,-0.41743 L 67.376,100.59377 c 0.118928,0.20911 0.16068,0.80529 0.0164,1.1536 -0.07906,0.13597 -0.159752,0.36949 -0.159752,0.36949 -0.134723,-0.0135 -0.326256,-0.0972 -0.360163,-0.12461 z m -0.467051,-2.171242 0.205477,-0.211023 c 0.208773,0.04243 0.496819,0.463295 0.496819,0.463295 l -0.22519,0.19029 c -0.07747,-0.16519 -0.235561,-0.36179 -0.477106,-0.442562 z m 0.486049,-6.265235 c 0,-1.171628 -0.01257,-1.225387 -0.370177,-1.582993 -0.252645,-0.252644 -0.496987,-0.370176 -0.769578,-0.370176 -0.468487,0 -1.139755,0.590945 -1.139755,1.003374 0,0.06199 -0.0095,0.258318 -0.0095,0.258318 l 1.161683,0.0047 v 0.253279 l -1.155473,0.0079 c 0,0 0.0034,0.205259 0.0033,0.300338 0,0.07325 0.0051,0.341501 0.0051,0.341501 l 0.713126,0.0068 0.008,0.35667 c -0.217744,0 -0.700658,0.01433 -0.700658,0.01433 l -0.01362,0.614079 c 0,0 -0.0035,0.0048 1.127762,0.0048 h 1.139755 z"
       id="path21"
       inkscape:connector-curvature="0"
       sodipodi:nodetypes="ccccsccccscccccsscccsscccccccccccccccssccccsccccccscccscssccccccccccscsc" />
  </g>
</svg>
