<?xml version="1.0" encoding="UTF-8" standalone="no"?>
<!-- Created with Inkscape (http://www.inkscape.org/) -->

<svg
   xmlns:dc="http://purl.org/dc/elements/1.1/"
   xmlns:cc="http://creativecommons.org/ns#"
   xmlns:rdf="http://www.w3.org/1999/02/22-rdf-syntax-ns#"
   xmlns:svg="http://www.w3.org/2000/svg"
   xmlns="http://www.w3.org/2000/svg"
   xmlns:sodipodi="http://sodipodi.sourceforge.net/DTD/sodipodi-0.dtd"
   xmlns:inkscape="http://www.inkscape.org/namespaces/inkscape"
   width="12.7mm"
   height="12.585135mm"
   viewBox="0 0 12.7 12.585135"
   version="1.1"
   id="svg8"
   inkscape:version="0.92.4 (5da689c313, 2019-01-14)"
   sodipodi:docname="waist-circumference-white.svg">
  <defs
     id="defs2" />
  <sodipodi:namedview
     id="base"
     pagecolor="#ffffff"
     bordercolor="#666666"
     borderopacity="1.0"
     inkscape:pageopacity="0.0"
     inkscape:pageshadow="2"
     inkscape:zoom="2.8"
     inkscape:cx="-17.795797"
     inkscape:cy="71.205666"
     inkscape:document-units="mm"
     inkscape:current-layer="layer1"
     showgrid="false"
     inkscape:window-width="2560"
     inkscape:window-height="982"
     inkscape:window-x="0"
     inkscape:window-y="27"
     inkscape:window-maximized="1" />
  <metadata
     id="metadata5">
    <rdf:RDF>
      <cc:Work
         rdf:about="">
        <dc:format>image/svg+xml</dc:format>
        <dc:type
           rdf:resource="http://purl.org/dc/dcmitype/StillImage" />
        <dc:title></dc:title>
      </cc:Work>
    </rdf:RDF>
  </metadata>
  <g
     inkscape:label="Camada 1"
     inkscape:groupmode="layer"
     id="layer1"
     transform="translate(-57.833775,-100.34657)">
    <path
       style="fill:#ffffff;fill-opacity:1;stroke-width:0.12679666"
       d="m 64.384803,112.28824 c -2.998741,-0.36516 -5.583691,-0.73474 -5.744334,-0.8213 -0.160643,-0.0866 -0.402928,-0.33917 -0.538412,-0.56137 -0.217255,-0.35631 -0.24639,-0.64798 -0.246808,-2.47075 -5.27e-4,-2.39305 0.07728,-2.6516 0.915343,-3.04086 0.426404,-0.19805 1.158803,-0.30042 3.426017,-0.47886 1.586021,-0.12482 2.865093,-0.24553 2.842383,-0.26824 -0.02271,-0.0227 -1.463009,-0.21327 -3.200665,-0.42347 -1.737656,-0.2102 -3.344814,-0.41251 -3.571463,-0.44956 l -0.412089,-0.0674 v -1.63512 l -0.021,-1.72474 c 0,0 11.069795,1.20476 11.665332,1.4235 0.918972,0.33754 1.034341,0.66077 1.034667,2.89883 2.28e-4,1.55738 -0.03989,1.98235 -0.22142,2.34574 -0.365298,0.73125 -0.748828,0.83018 -4.403879,1.13601 -1.812033,0.15162 -3.30853,0.28959 -3.32555,0.30662 -0.01702,0.017 1.665257,0.21727 3.738393,0.445 2.073137,0.22773 3.870773,0.44258 3.994748,0.47745 0.204202,0.0574 0.222097,0.2265 0.190195,1.79717 l -0.03521,1.73379 -0.316992,0.0207 c -0.174345,0.0114 -2.770507,-0.27803 -5.769248,-0.64319 z m 5.642451,-1.15269 c 0,-0.743 -0.05248,-1.33136 -0.118763,-1.33136 -0.06532,0 -0.136642,0.18544 -0.158495,0.41209 -0.05785,0.59999 -0.408577,0.5516 -0.459477,-0.0634 -0.0356,-0.43013 -0.07415,-0.47549 -0.404055,-0.47549 -0.318778,0 -0.369705,0.0519 -0.404435,0.41209 -0.05785,0.59999 -0.408576,0.5516 -0.459476,-0.0634 -0.03581,-0.43269 -0.0729,-0.47548 -0.412089,-0.47548 -0.371035,0 -0.372736,0.003 -0.372736,0.76078 0,0.67624 -0.02818,0.76078 -0.253594,0.76078 -0.227584,0 -0.253593,-0.0845 -0.253593,-0.82419 v -0.82417 h -0.38039 c -0.338124,0 -0.38039,0.0423 -0.38039,0.38039 0,0.29585 -0.05635,0.38039 -0.253593,0.38039 -0.20529,0 -0.253594,-0.0845 -0.253594,-0.44379 0,-0.40634 -0.03139,-0.44379 -0.371967,-0.44379 -0.311526,0 -0.378488,0.0567 -0.412089,0.34869 -0.05702,0.49555 -0.409981,0.45709 -0.459248,-0.05 -0.03219,-0.33133 -0.100925,-0.40786 -0.40663,-0.45273 l -0.367893,-0.054 -0.03716,0.76972 c -0.02815,0.58314 -0.08326,0.76971 -0.227355,0.76971 -0.144748,0 -0.199215,-0.18936 -0.227944,-0.79247 -0.02707,-0.56825 -0.08692,-0.79248 -0.211524,-0.79248 -0.09558,0 -0.264029,-0.0346 -0.374339,-0.077 -0.156368,-0.06 -0.200566,0.01 -0.200566,0.31699 0,0.30943 -0.05441,0.39396 -0.253593,0.39396 -0.197239,0 -0.253593,-0.0845 -0.253593,-0.38039 0,-0.20921 -0.0428,-0.38117 -0.0951,-0.38212 -0.0523,-9.6e-4 -0.219156,-0.035 -0.370783,-0.0757 -0.230345,-0.0618 -0.282479,-0.0146 -0.316992,0.28702 -0.05179,0.45259 -0.404174,0.48583 -0.466178,0.044 -0.04863,-0.34658 -0.218547,-0.50225 -0.551474,-0.50525 -0.173767,-0.001 -0.22294,0.13943 -0.253593,0.72714 -0.02851,0.54664 -0.08562,0.72908 -0.228222,0.72908 -0.143848,0 -0.199198,-0.18556 -0.22714,-0.76147 -0.03364,-0.69338 -0.07049,-0.78073 -0.412089,-0.97678 l -0.375145,-0.2153 v 1.17657 c 0,1.06349 0.02801,1.20288 0.291389,1.45031 0.377219,0.35438 0.24817,0.33253 6.137534,1.03948 2.775397,0.33316 5.088969,0.61186 5.141273,0.61934 0.0523,0.007 0.0951,-0.58552 0.0951,-1.31777 z m -5.515655,-3.36586 c 2.510574,-0.21338 4.71419,-0.44589 4.896923,-0.51667 0.476911,-0.18474 0.618732,-0.60985 0.618732,-1.85465 0,-1.11007 -0.196878,-1.35833 -0.276819,-0.34906 -0.04758,0.60066 -0.396013,0.72054 -0.460684,0.15849 -0.03338,-0.29008 -0.101293,-0.34869 -0.404055,-0.34869 -0.317911,0 -0.368959,0.0521 -0.403667,0.41209 -0.05,0.51858 -0.402286,0.56711 -0.460244,0.0634 -0.03344,-0.29057 -0.101114,-0.34869 -0.406039,-0.34869 -0.360301,0 -0.366497,0.0122 -0.403667,0.79248 -0.02873,0.60312 -0.0832,0.79248 -0.227945,0.79248 -0.144094,0 -0.199202,-0.18657 -0.227353,-0.76972 l -0.03716,-0.76972 -0.367893,0.054 c -0.305705,0.0449 -0.374441,0.1214 -0.406629,0.45273 -0.05326,0.54822 -0.405702,0.53796 -0.45886,-0.0134 -0.0277,-0.28733 -0.104479,-0.4115 -0.253593,-0.41015 -0.348033,0.003 -0.505299,0.16555 -0.55111,0.56906 -0.06078,0.53531 -0.411498,0.50529 -0.46383,-0.0397 -0.03577,-0.37255 -0.07849,-0.41527 -0.38039,-0.38039 -0.322345,0.0372 -0.343399,0.0823 -0.403489,0.86347 -0.04768,0.6199 -0.110541,0.82418 -0.253594,0.82418 -0.144748,0 -0.199215,-0.18936 -0.227944,-0.79248 -0.03719,-0.78072 -0.04319,-0.79248 -0.404435,-0.79248 -0.332198,0 -0.370387,0.0447 -0.406039,0.47549 -0.0509,0.615 -0.401626,0.66339 -0.459476,0.0634 -0.03473,-0.3602 -0.08566,-0.41209 -0.404435,-0.41209 -0.329906,0 -0.368457,0.0454 -0.404055,0.47549 -0.0509,0.615 -0.401626,0.66339 -0.459476,0.0634 -0.03478,-0.36073 -0.08542,-0.41209 -0.406296,-0.41209 -0.364313,0 -0.366794,0.005 -0.404056,0.85587 -0.02889,0.65959 -0.08111,0.85588 -0.227687,0.85588 -0.143053,0 -0.205909,-0.20428 -0.253594,-0.82418 l -0.0634,-0.82418 -0.348691,0.34293 c -0.763039,0.75043 -0.176334,2.10732 0.919276,2.12604 0.174346,0.003 2.371098,-0.16917 4.881671,-0.38257 z m 5.008468,-3.66381 c 0.350776,-0.24571 0.597703,-0.99006 0.45003,-1.3566 -0.08743,-0.21701 -0.104162,-0.21221 -0.208978,0.06 -0.157132,0.40808 -0.41825,0.28002 -0.494645,-0.24259 -0.05214,-0.35669 -0.123799,-0.44069 -0.403489,-0.47301 -0.301901,-0.0349 -0.344616,0.008 -0.38039,0.38039 -0.05824,0.60656 -0.408742,0.56404 -0.460042,-0.0558 -0.03581,-0.4327 -0.0729,-0.47549 -0.412089,-0.47549 -0.371035,0 -0.372736,0.003 -0.372736,0.76078 0,0.67625 -0.02818,0.76078 -0.253594,0.76078 -0.227584,0 -0.253593,-0.0845 -0.253593,-0.82418 0,-0.62694 -0.04304,-0.82418 -0.179825,-0.82418 -0.0989,0 -0.270078,-0.0346 -0.38039,-0.077 -0.160044,-0.0614 -0.200565,0.0154 -0.200565,0.38039 0,0.37282 -0.04687,0.45735 -0.253593,0.45735 -0.203767,0 -0.253594,-0.0845 -0.253594,-0.43022 0,-0.27534 -0.0722,-0.45793 -0.200565,-0.50718 -0.404692,-0.1553 -0.544322,-0.0752 -0.58388,0.33512 -0.05537,0.57427 -0.400183,0.55167 -0.483521,-0.0317 -0.02907,-0.20344 -0.0034,-0.45231 -0.0034,-0.45231 l -0.705864,-0.036 c 0,0 -0.05523,0.53984 -0.07695,0.99791 -0.02893,0.60997 -0.08318,0.56814 -0.228148,0.56814 -0.146574,0 -0.198793,0.0359 -0.227687,-0.62372 -0.02191,-0.50008 -0.02584,-1.01454 -0.02584,-1.01454 l -0.755203,-0.0644 c 0,0 -0.0056,0.19993 -0.0056,0.37128 0,0.29585 -0.05636,0.38039 -0.253594,0.38039 -0.20529,0 -0.253593,-0.0845 -0.253593,-0.44379 0,-0.17277 0.0044,-0.36675 0.0044,-0.36675 l -0.756327,-0.0734 c 0,0 -0.02382,0.34853 -0.04415,0.52519 -0.005,0.31143 -0.462014,0.31299 -0.459248,-0.05 -0.01614,-0.16616 0.02483,-0.55292 0.02483,-0.55292 0,0 -0.267056,-0.0576 -0.419455,-0.0799 l -0.367893,-0.054 -0.04116,1.26604 c -0.05617,0.23892 -0.07926,0.27339 -0.223351,0.27339 -0.144748,0 -0.187207,-0.0212 -0.231947,-0.29615 -0.02076,-0.43586 -0.07382,-1.28958 -0.122794,-1.29054 -0.04898,-9.5e-4 -0.217429,-0.0361 -0.37434,-0.0782 -0.107784,-0.0289 -0.30064,-0.0555 -0.30064,-0.0555 0,0 0.01535,0.47069 0.01535,1.24033 v 1.26133 l 4.469582,0.53526 c 2.458271,0.29439 4.55517,0.55075 4.659778,0.56968 0.492266,0.0891 1.740109,-0.0916 2.028746,-0.29378 z"
       id="path826"
       inkscape:connector-curvature="0"
       sodipodi:nodetypes="csccssssccccsscscccscccccsscsscsssscssssssccccscscsssccccccscccscscccccsccsscsssccccccccscscsccsscscssccccccscscscssssscssscssccsssccsssccccccccsccccscsccc" />
  </g>
</svg>
