<?xml version="1.0" encoding="UTF-8" standalone="no"?>
<!-- Created with Inkscape (http://www.inkscape.org/) -->

<svg
   xmlns:dc="http://purl.org/dc/elements/1.1/"
   xmlns:cc="http://creativecommons.org/ns#"
   xmlns:rdf="http://www.w3.org/1999/02/22-rdf-syntax-ns#"
   xmlns:svg="http://www.w3.org/2000/svg"
   xmlns="http://www.w3.org/2000/svg"
   xmlns:sodipodi="http://sodipodi.sourceforge.net/DTD/sodipodi-0.dtd"
   xmlns:inkscape="http://www.inkscape.org/namespaces/inkscape"
   width="12.700002mm"
   height="12.7mm"
   viewBox="0 0 12.700001 12.7"
   version="1.1"
   id="svg8"
   inkscape:version="0.92.4 (5da689c313, 2019-01-14)"
   sodipodi:docname="weight.svg">
  <defs
     id="defs2" />
  <sodipodi:namedview
     id="base"
     pagecolor="#ffffff"
     bordercolor="#666666"
     borderopacity="1.0"
     inkscape:pageopacity="0.0"
     inkscape:pageshadow="2"
     inkscape:zoom="3.959798"
     inkscape:cx="-22.200899"
     inkscape:cy="35.724414"
     inkscape:document-units="mm"
     inkscape:current-layer="layer1"
     showgrid="false"
     inkscape:window-width="2560"
     inkscape:window-height="982"
     inkscape:window-x="0"
     inkscape:window-y="27"
     inkscape:window-maximized="1" />
  <metadata
     id="metadata5">
    <rdf:RDF>
      <cc:Work
         rdf:about="">
        <dc:format>image/svg+xml</dc:format>
        <dc:type
           rdf:resource="http://purl.org/dc/dcmitype/StillImage" />
        <dc:title></dc:title>
      </cc:Work>
    </rdf:RDF>
  </metadata>
  <g
     inkscape:label="Camada 1"
     inkscape:groupmode="layer"
     id="layer1"
     transform="translate(-83.252997,-73.284131)">
    <path
       style="fill:#00a594;fill-opacity:1;stroke-width:0.15048335"
       d="m 83.619352,85.639011 c -0.170089,-0.171 -0.271676,-0.38688 -0.309269,-0.688164 -0.03759,-0.30132 0,-5.311277 0,-5.311277 0,0 -0.128444,-4.205891 0,-5.311277 0.02882,-0.247979 0.198052,-0.480119 0.36814,-0.651149 0.170091,-0.171 0.401937,-0.37188 0.652399,-0.37488 0.81752,-0.0096 5.282789,0 5.282789,0 0,0 5.087959,-0.0408 5.28279,0 0.194828,0.0408 0.450728,0.17364 0.62082,0.34464 0.170088,0.171 0.318141,0.2718 0.39972,0.681419 0.08158,0.40962 0,5.311277 0,5.311277 v 5.311277 c 0,0.24474 -0.165982,0.55758 -0.336072,0.728574 -0.170089,0.170999 -0.684468,0.297479 -0.684468,0.297479 -0.260314,0.0162 -5.28279,0 -5.28279,0 h -5.282789 c -0.252325,0 -0.541179,-0.16686 -0.71127,-0.337859 z m 11.396911,-0.56748 c 0.288388,-0.28992 0.300159,-0.50298 0.300159,-5.431991 0,-4.929023 -0.01177,-5.142041 -0.300159,-5.431984 -0.288387,-0.28992 -0.500264,-0.3018 -5.402852,-0.3018 -4.902589,0 -5.114466,0.012 -5.402853,0.3018 -0.288388,0.289919 -0.300159,0.502979 -0.300159,5.431984 0,4.929029 0.01178,5.142047 0.300159,5.431991 0.288387,0.28992 0.500264,0.3018 5.402853,0.3018 4.902588,0 5.114465,-0.012 5.402852,-0.3018 z m -9.346223,-7.155274 -0.857293,-1.119732 0.58649,-0.46704 c 0.825129,-0.657042 2.114266,-1.21806 3.24725,-1.41318 1.679229,-0.2892 3.753838,0.27666 5.181097,1.41318 l 0.586491,0.46704 -0.857295,1.119732 -0.857294,1.119731 h -3.086075 -3.086077 z m 4.001437,-0.46458 c 0.393948,-0.53946 0.738539,-0.980778 0.765756,-0.980778 0.02722,0 -0.04491,0.35646 -0.160269,0.792168 l -0.372932,1.150529 c 0,0 0.643496,0.0186 1.347468,0.0186 h 1.187851 l 0.548712,-0.751523 c 0.301791,-0.41334 0.505866,-0.82122 0.453502,-0.906402 -0.05237,-0.0852 -0.29946,-0.26106 -0.549103,-0.39084 -0.41428,-0.2154 -0.469464,-0.21456 -0.632279,0.009 -0.07359,0.10122 -0.173478,0.20964 -0.173478,0.20964 l -0.465312,-0.28998 0.101914,-0.15996 c 0.175961,-0.33054 -0.07648,-0.47208 -1.171903,-0.656856 -0.635795,-0.10728 -0.637836,-0.10614 -0.637836,0.35832 0,0.14856 -0.0062,0.3135 -0.0062,0.3135 l -0.57277,0.0138 c 0,0 -0.02145,-0.1806 -0.02145,-0.327 0,-0.46446 -0.0021,-0.4656 -0.637837,-0.35832 -1.115216,0.18816 -1.349187,0.32382 -1.162682,0.674172 0.05046,0.0948 0.107329,0.2151 0.107329,0.2151 l -0.497782,0.2289 c 0,0 -0.103731,-0.14964 -0.148677,-0.21144 -0.185423,-0.25494 -0.221691,-0.25182 -0.728694,0.06324 -0.293457,0.18234 -0.533559,0.3678 -0.533559,0.4122 0,0.0444 0.242127,0.41226 0.538059,0.817584 l 0.53806,0.736931 h 1.083867 1.083866 z"
       id="path1047"
       inkscape:connector-curvature="0"
       sodipodi:nodetypes="zzcszsczzzcszscszcscscscscccssscccccccsccscscsscccssccsssccscsscccc" />
  </g>
</svg>
