<?xml version="1.0" encoding="UTF-8" standalone="no"?>
<!-- Generator: Adobe Illustrator 19.0.0, SVG Export Plug-In . SVG Version: 6.00 Build 0)  -->

<svg
   xmlns:dc="http://purl.org/dc/elements/1.1/"
   xmlns:cc="http://creativecommons.org/ns#"
   xmlns:rdf="http://www.w3.org/1999/02/22-rdf-syntax-ns#"
   xmlns:svg="http://www.w3.org/2000/svg"
   xmlns="http://www.w3.org/2000/svg"
   xmlns:sodipodi="http://sodipodi.sourceforge.net/DTD/sodipodi-0.dtd"
   xmlns:inkscape="http://www.inkscape.org/namespaces/inkscape"
   version="1.1"
   id="Capa_1"
   x="0px"
   y="0px"
   viewBox="0 0 480 480"
   style="enable-background:new 0 0 480 480;"
   xml:space="preserve"
   sodipodi:docname="awake.svg"
   inkscape:version="0.92.4 (5da689c313, 2019-01-14)"><metadata
   id="metadata61"><rdf:RDF><cc:Work
       rdf:about=""><dc:format>image/svg+xml</dc:format><dc:type
         rdf:resource="http://purl.org/dc/dcmitype/StillImage" /></cc:Work></rdf:RDF></metadata><defs
   id="defs59">
	

		
	</defs><sodipodi:namedview
   pagecolor="#ffffff"
   bordercolor="#666666"
   borderopacity="1"
   objecttolerance="10"
   gridtolerance="10"
   guidetolerance="10"
   inkscape:pageopacity="0"
   inkscape:pageshadow="2"
   inkscape:window-width="2560"
   inkscape:window-height="982"
   id="namedview57"
   showgrid="false"
   inkscape:zoom="0.49166666"
   inkscape:cx="1361.1095"
   inkscape:cy="438.52006"
   inkscape:window-x="0"
   inkscape:window-y="27"
   inkscape:window-maximized="1"
   inkscape:current-layer="Capa_1" />
<path
   d="M 24,96 C 10.539,96 0,104.43422 0,115.19922 V 460.80078 C 0,471.56578 10.539,480 24,480 c 13.461,0 24,-8.43422 24,-19.19922 V 408 h 384 v 56.67969 c 0,9.019 9.867,15.32031 24,15.32031 14.133,0 24,-6.30131 24,-15.32031 V 239.32031 C 480,230.30131 470.133,224 456,224 c -14.133,0 -24,6.30131 -24,15.32031 v 27.50391 C 419.333,241.79222 399.84712,224.3709 376,224 l -129.24362,-2.15625 7.45639,8.32987 c 3.68644,5.25848 2.99509,5.90314 5.50392,9.87034 L 376,240 c 30.17157,0.16166 53.17181,44.926 55.75781,88 H 160 c -0.50674,-20.34739 -0.90187,-30.35979 -0.5147,-52.50489 l -5.06402,-3.72625 -5.45124,-5.61016 c -2.43626,-2.50729 -5.06974,-5.80853 -5.06974,-5.80853 l 0.81844,63.94085 c -4.78302,-13.56913 -58.097049,-17.06914 -84.207031,-12.08399 -4.612,0.508 -8.967719,2.38 -12.511719,5.375 V 115.19922 C 48,104.43422 37.461,96 24,96 Z m 0,16 c 5.227,0 7.914,2.54322 8,3.19922 V 460.80078 C 31.914,461.45678 29.227,464 24,464 c -5.25,0 -7.922,-2.54322 -8,-3.19922 V 115.19922 C 16.078,114.54322 18.75,112 24,112 Z m 432,128 c 2.70775,0 5.4155,0.46875 8,1.40625 v 221.1875 c -5.169,1.875 -10.831,1.875 -16,0 V 241.40625 C 450.5845,240.46875 453.29225,240 456,240 Z M 63.070312,328 h 64.609378 c 4.331,0.091 7.77231,3.669 7.69531,8 -0.001,4.417 3.57909,7.999 7.99609,8 H 143.375 432 v 48 H 48 v -48.02344 c 4.163,-0.328 7.374,-3.80056 7.375,-7.97656 -0.077,-4.331 3.364313,-7.909 7.695312,-8 z"
   id="path2"
   inkscape:connector-curvature="0"
   sodipodi:nodetypes="sssssccssssssccccccccccsccccsssccsccssccccsccccccccccc"
   style="fill:#000000;stroke:#000000" />



<g
   id="g26">
</g>
<g
   id="g28">
</g>
<g
   id="g30">
</g>
<g
   id="g32">
</g>
<g
   id="g34">
</g>
<g
   id="g36">
</g>
<g
   id="g38">
</g>
<g
   id="g40">
</g>
<g
   id="g42">
</g>
<g
   id="g44">
</g>
<g
   id="g46">
</g>
<g
   id="g48">
</g>
<g
   id="g50">
</g>
<g
   id="g52">
</g>
<g
   id="g54">
</g>
<path
   style="fill:none;stroke:#000000;stroke-width:13.11742783;stroke-linecap:butt;stroke-linejoin:miter;stroke-miterlimit:4;stroke-dasharray:none;stroke-opacity:1"
   d="m 112.68312,131.56341 c 0,0 -20.396499,-8.30404 -37.198316,10.41728 -19.876226,22.14697 3.261731,52.79151 3.261731,52.79151 l 51.611025,64.70357 0.0516,42.24633 c 0,0 -30.05728,8.4193 -52.022191,-17.28176 C 56.422053,258.7393 59.1195,170.55813 59.1195,170.55813 c 0,0 -1.541395,-56.71957 24.277018,-55.39021 25.818432,1.32936 29.286602,16.39549 29.286602,16.39549 z"
   id="path141"
   inkscape:connector-curvature="0"
   sodipodi:nodetypes="cscccscsc" /><path
   style="fill:none;stroke:#000000;stroke-width:13.813;stroke-linecap:butt;stroke-linejoin:miter;stroke-opacity:1;stroke-miterlimit:4;stroke-dasharray:none"
   d="m 88.57452,177.58397 69.51047,82.19141 3.28766,1.409 70.44977,0.93931 c 0,0 13.15064,-7.51462 13.62029,-17.37758 0.4697,-9.86301 -13.15062,-19.25628 -13.15062,-19.25628 l -52.13284,-1.409 -61.99583,-73.26778 c 0,0 -13.62027,-8.92364 -26.7709,1.87868 -13.150621,10.80228 -2.818,24.89224 -2.818,24.89224 z"
   id="path139"
   inkscape:connector-curvature="0" /><path
   style="fill:#000000;fill-opacity:1;stroke:none;stroke-width:0.47000042;stroke-miterlimit:4;stroke-dasharray:none"
   d="m 127.5003,18.859796 c -26.39805,-0.0011 -47.798534,21.398339 -47.798694,47.796379 1.6e-4,26.398036 21.400644,47.797485 47.798694,47.796365 26.39715,-1.5e-4 47.79621,-21.399219 47.79637,-47.796365 -1.6e-4,-26.39715 -21.39922,-47.796225 -47.79637,-47.796379 z m -1.7e-4,16.620599 c 20.23088,4.3e-4 31.86731,16.60776 31.95763,30.63646 -4.3e-4,20.23087 -14.4055,33.190246 -31.32825,33.305766 -17.33611,0.11835 -33.374194,-16.042506 -32.768764,-32.406896 0.6848,-18.5097 15.143514,-30.81707 32.139384,-31.53533 z"
   id="path182-1"
   inkscape:connector-curvature="0"
   sodipodi:nodetypes="cccccccssc" /></svg>