<?xml version="1.0" encoding="UTF-8" standalone="no"?>
<!-- Generator: Adobe Illustrator 18.1.1, SVG Export Plug-In . SVG Version: 6.00 Build 0)  -->

<svg
   xmlns:dc="http://purl.org/dc/elements/1.1/"
   xmlns:cc="http://creativecommons.org/ns#"
   xmlns:rdf="http://www.w3.org/1999/02/22-rdf-syntax-ns#"
   xmlns:svg="http://www.w3.org/2000/svg"
   xmlns="http://www.w3.org/2000/svg"
   xmlns:sodipodi="http://sodipodi.sourceforge.net/DTD/sodipodi-0.dtd"
   xmlns:inkscape="http://www.inkscape.org/namespaces/inkscape"
   version="1.1"
   id="Capa_1"
   x="0px"
   y="0px"
   viewBox="0 0 17.644865 26.171906"
   xml:space="preserve"
   sodipodi:docname="calories-black.svg"
   width="17.644865"
   height="26.171906"
   inkscape:version="0.92.4 (5da689c313, 2019-01-14)"><metadata
   id="metadata408"><rdf:RDF><cc:Work
       rdf:about=""><dc:format>image/svg+xml</dc:format><dc:type
         rdf:resource="http://purl.org/dc/dcmitype/StillImage" /><dc:title></dc:title></cc:Work></rdf:RDF></metadata><defs
   id="defs406" /><sodipodi:namedview
   pagecolor="#ffffff"
   bordercolor="#666666"
   borderopacity="1"
   objecttolerance="10"
   gridtolerance="10"
   guidetolerance="10"
   inkscape:pageopacity="0"
   inkscape:pageshadow="2"
   inkscape:window-width="2522"
   inkscape:window-height="1016"
   id="namedview404"
   showgrid="false"
   inkscape:zoom="12.836708"
   inkscape:cx="39.289645"
   inkscape:cy="3.7233604"
   inkscape:window-x="38"
   inkscape:window-y="27"
   inkscape:window-maximized="1"
   inkscape:current-layer="Capa_1" />

<g
   id="g373"
   transform="translate(-0.16256118,0.13993364)">
</g>
<g
   id="g375"
   transform="translate(-0.16256118,0.13993364)">
</g>
<g
   id="g377"
   transform="translate(-0.16256118,0.13993364)">
</g>
<g
   id="g379"
   transform="translate(-0.16256118,0.13993364)">
</g>
<g
   id="g381"
   transform="translate(-0.16256118,0.13993364)">
</g>
<g
   id="g383"
   transform="translate(-0.16256118,0.13993364)">
</g>
<g
   id="g385"
   transform="translate(-0.16256118,0.13993364)">
</g>
<g
   id="g387"
   transform="translate(-0.16256118,0.13993364)">
</g>
<g
   id="g389"
   transform="translate(-0.16256118,0.13993364)">
</g>
<g
   id="g391"
   transform="translate(-0.16256118,0.13993364)">
</g>
<g
   id="g393"
   transform="translate(-0.16256118,0.13993364)">
</g>
<g
   id="g395"
   transform="translate(-0.16256118,0.13993364)">
</g>
<g
   id="g397"
   transform="translate(-0.16256118,0.13993364)">
</g>
<g
   id="g399"
   transform="translate(-0.16256118,0.13993364)">
</g>
<g
   id="g401"
   transform="translate(-0.16256118,0.13993364)">
</g>
<path
   style="fill:#000000;fill-opacity:1;stroke-width:0.06545868"
   d="m 12.601421,0 c -0.444489,0 -1.895462,1.1047832 -2.487372,1.5708976 -0.09993,0.079 -0.1778012,0.1411887 -0.2202202,0.1731499 C 9.6323656,1.9538064 9.3650956,2.1682135 9.0979226,2.4039362 4.264429,6.535548 -1.867701,14.359137 0.54117758,20.679924 h 0.00383 c 0.29342524,0.785564 0.72280732,1.544751 1.30402432,2.272673 4.7235166,5.91738 14.3905071,3.183999 15.6996491,-4.183943 0.392787,-2.189017 -0.507816,-4.315161 -1.073403,-6.388899 -0.251015,-0.932271 -0.429396,-1.895815 -0.408469,-2.8645828 0.01168,-0.4712252 0.068,-0.9425042 0.183599,-1.3982065 0.125513,-0.4921531 0.403244,-0.9319994 0.533982,-1.4032158 -0.947855,-0.136545 -1.974258,0.4189266 -2.628866,1.0629512 -0.581206,0.5653506 -0.842911,1.3510886 -1.162596,2.0790813 -0.07843,0.1731416 -0.392789,0.7591256 -0.481689,0.9268656 0,-0.01741 -0.335256,-0.398007 -0.659713,-0.775273 C 11.558104,9.6726914 11.264966,9.3372075 11.217904,9.2587001 10.002836,7.4258076 10.259592,5.2369198 10.997691,3.2835796 c 0.0738,-0.1993011 0.156881,-0.3980273 0.24113,-0.5916725 0.05805,-0.1202853 0.110401,-0.240554 0.167339,-0.361414 C 11.49567,2.131192 11.594417,1.9371345 11.69378,1.7387039 11.78794,1.5504523 12.458304,0 12.599729,0 Z m 2.081054,11.588148 c 0.06271,0.339336 0.151657,0.723403 0.279486,1.207172 0.0825,0.306792 0.176052,0.616483 0.268436,0.926415 l 0.09878,0.332352 c 0.273087,0.896194 0.494468,1.645382 0.626533,2.398938 l -1.031756,0.180118 C 14.802521,15.938686 14.590442,15.221218 14.325833,14.355181 L 14.227053,14.02166 C 14.131773,13.703839 14.03648,13.384902 13.949902,13.066607 13.813359,12.553542 13.719807,12.144324 13.652412,11.77792 Z M 7.8257966,12.76697 c 0.58627,1.173178 1.094326,2.199467 1.947878,3.23633 0.8325194,1.010778 1.7229064,2.026728 2.1731504,3.27829 0.628452,1.769961 0.277737,4.28348 -1.005375,5.639933 -1.2672404,1.340402 -3.5503884,1.560493 -4.9329219,0.01742 -2.0946999,-2.351421 -1.963853,-6.022149 -0.5444325,-8.671971 0.6494991,-1.214843 1.6076267,-2.351067 2.361987,-3.498103 z"
   id="path1115-9-3"
   inkscape:connector-curvature="0"
   inkscape:export-filename="/home/adalcino/Ãrea de Trabalho/icons-time-series/calories-black.png"
   inkscape:export-xdpi="43.959557"
   inkscape:export-ydpi="43.959557" /></svg>