<?xml version="1.0" encoding="UTF-8" standalone="no"?>
<!-- Generator: Adobe Illustrator 19.0.0, SVG Export Plug-In . SVG Version: 6.00 Build 0)  -->

<svg
   xmlns:dc="http://purl.org/dc/elements/1.1/"
   xmlns:cc="http://creativecommons.org/ns#"
   xmlns:rdf="http://www.w3.org/1999/02/22-rdf-syntax-ns#"
   xmlns:svg="http://www.w3.org/2000/svg"
   xmlns="http://www.w3.org/2000/svg"
   xmlns:sodipodi="http://sodipodi.sourceforge.net/DTD/sodipodi-0.dtd"
   xmlns:inkscape="http://www.inkscape.org/namespaces/inkscape"
   version="1.1"
   id="Layer_1"
   x="0px"
   y="0px"
   viewBox="0 0 512 512"
   style="enable-background:new 0 0 512 512;"
   xml:space="preserve"
   sodipodi:docname="distance.svg"
   inkscape:version="0.92.4 (5da689c313, 2019-01-14)"><metadata
   id="metadata55"><rdf:RDF><cc:Work
       rdf:about=""><dc:format>image/svg+xml</dc:format><dc:type
         rdf:resource="http://purl.org/dc/dcmitype/StillImage" /></cc:Work></rdf:RDF></metadata><defs
   id="defs53" /><sodipodi:namedview
   pagecolor="#ffffff"
   bordercolor="#666666"
   borderopacity="1"
   objecttolerance="10"
   gridtolerance="10"
   guidetolerance="10"
   inkscape:pageopacity="0"
   inkscape:pageshadow="2"
   inkscape:window-width="2560"
   inkscape:window-height="982"
   id="namedview51"
   showgrid="false"
   inkscape:zoom="0.4609375"
   inkscape:cx="256"
   inkscape:cy="256"
   inkscape:window-x="0"
   inkscape:window-y="27"
   inkscape:window-maximized="1"
   inkscape:current-layer="Layer_1" />
<g
   id="g18"
   style="fill:#333333;fill-opacity:1">
	<g
   id="g16"
   style="fill:#333333;fill-opacity:1">
		<g
   id="g14"
   style="fill:#333333;fill-opacity:1">
			<path
   d="M426.667,0c-47.052,0-85.333,38.281-85.333,85.333c0,40.814,60.469,123.419,74.637,142.22     c-0.004,6.073,0,12.036-0.147,17.509c-0.156,5.885,4.49,10.792,10.385,10.948c0.094,0,0.188,0,0.292,0     c5.75,0,10.5-4.594,10.656-10.385c0.147-5.616,0.143-11.746,0.147-17.992C451.378,208.961,512,126.195,512,85.333     C512,38.281,473.719,0,426.667,0z M426.667,106.667c-11.76,0-21.333-9.573-21.333-21.333c0-11.76,9.573-21.333,21.333-21.333     S448,73.573,448,85.333C448,97.094,438.427,106.667,426.667,106.667z"
   id="path2"
   style="fill:#333333;fill-opacity:1" />
			<path
   d="M326.5,307.427c-17.604,9.99-27.385,27.333-33.219,39.5c-2.552,5.313-0.313,11.688,5,14.229     c1.49,0.719,3.063,1.052,4.604,1.052c3.979,0,7.792-2.229,9.625-6.052c7.406-15.448,14.969-24.75,24.531-30.188     c5.115-2.906,6.917-9.417,4-14.542C338.146,306.302,331.656,304.5,326.5,307.427z"
   id="path4"
   style="fill:#333333;fill-opacity:1" />
			<path
   d="M229.427,462.281c-10.688,8.469-22.833,14.844-37.146,19.5c-5.604,1.823-8.667,7.844-6.844,13.448     c1.469,4.5,5.646,7.365,10.146,7.365c1.094,0,2.208-0.167,3.302-0.521c16.531-5.375,31.26-13.135,43.792-23.063     c4.615-3.667,5.396-10.375,1.74-14.99C240.729,459.417,234.031,458.594,229.427,462.281z"
   id="path6"
   style="fill:#333333;fill-opacity:1" />
			<path
   d="M289.573,384.438c-5.521-2.146-11.667,0.594-13.802,6.094c-4.781,12.354-10.76,26.76-18.823,39.958     c-3.073,5.031-1.479,11.594,3.542,14.667c1.74,1.063,3.656,1.563,5.552,1.563c3.594,0,7.104-1.813,9.115-5.104     c8.938-14.646,15.385-30.146,20.51-43.375C297.792,392.75,295.063,386.573,289.573,384.438z"
   id="path8"
   style="fill:#333333;fill-opacity:1" />
			<path
   d="M422.708,281.021c-4.844-3.281-11.5-2.021-14.813,2.854c-3.51,5.188-10.698,12.323-32.438,14.271     c-5.865,0.531-10.198,5.708-9.667,11.583c0.5,5.542,5.156,9.708,10.615,9.708c0.323,0,0.646-0.01,0.969-0.042     c23.094-2.073,38.854-9.781,48.188-23.563C428.865,290.958,427.583,284.323,422.708,281.021z"
   id="path10"
   style="fill:#333333;fill-opacity:1" />
			<path
   d="M153.275,490.805C186.932,454.913,256,372.341,256,298.667c0-71.771-56.229-128-128-128s-128,56.229-128,128     c0,94.615,114.068,204.146,120.443,210.19c0,0,0.026,0.026,0.038,0.038c0.035,0.033,0.169,0.163,0.197,0.189     c0.441,0.419,0.991,0.613,1.48,0.941c0.605,0.408,1.152,0.889,1.837,1.168C125.28,511.715,126.634,512,128,512     c7.771,0,15.156-0.271,22.156-0.802c5.875-0.448,10.281-5.563,9.833-11.438C159.669,495.556,156.948,492.277,153.275,490.805z      M128,362.667c-35.292,0-64-28.708-64-64c0-35.292,28.708-64,64-64s64,28.708,64,64C192,333.958,163.292,362.667,128,362.667z"
   id="path12"
   style="fill:#333333;fill-opacity:1" />
		</g>
	</g>
</g>
<g
   id="g20">
</g>
<g
   id="g22">
</g>
<g
   id="g24">
</g>
<g
   id="g26">
</g>
<g
   id="g28">
</g>
<g
   id="g30">
</g>
<g
   id="g32">
</g>
<g
   id="g34">
</g>
<g
   id="g36">
</g>
<g
   id="g38">
</g>
<g
   id="g40">
</g>
<g
   id="g42">
</g>
<g
   id="g44">
</g>
<g
   id="g46">
</g>
<g
   id="g48">
</g>
</svg>