<?xml version="1.0" encoding="iso-8859-1"?>
<!-- Generator: Adobe Illustrator 19.0.0, SVG Export Plug-In . SVG Version: 6.00 Build 0)  -->
<svg version="1.1" id="Layer_1" xmlns="http://www.w3.org/2000/svg" xmlns:xlink="http://www.w3.org/1999/xlink" x="0px" y="0px"
	 viewBox="0 0 329.928 329.928" style="enable-background:new 0 0 329.928 329.928;" xml:space="preserve">
<path id="XMLID_2_" d="M232.478,13.406c-24.56,0-48.827,9.248-67.511,25.279c-18.689-16.032-42.956-25.279-67.517-25.279
	C42.805,13.406,0,56.212,0,110.857C0,176.912,45.99,217.286,115.604,278.4c5.95,5.224,12.091,10.614,18.41,16.202
	c0.044,0.039,0.087,0.077,0.131,0.115l21.018,18.156c2.816,2.433,6.311,3.649,9.806,3.649s6.991-1.217,9.807-3.65l21.014-18.156
	c0.044-0.038,0.087-0.076,0.131-0.114c41.606-36.797,72.802-64.967,95.37-92.439c26.36-32.088,38.638-61.101,38.638-91.305
	C329.928,56.212,287.123,13.406,232.478,13.406z M176.105,272.076l-11.138,9.623l-11.145-9.628
	c-6.324-5.592-12.47-10.988-18.426-16.217C69.671,198.155,30,163.328,30,110.857c0-38.454,28.997-67.451,67.45-67.451
	c20.925,0,42.409,10.03,56.066,26.176c2.851,3.37,7.041,5.313,11.454,5.313c4.414,0,8.603-1.944,11.453-5.315
	c13.651-16.145,35.131-26.174,56.056-26.174c38.452,0,67.449,28.997,67.449,67.451C299.928,160.154,255.188,202.134,176.105,272.076
	z"/>
<g>
</g>
<g>
</g>
<g>
</g>
<g>
</g>
<g>
</g>
<g>
</g>
<g>
</g>
<g>
</g>
<g>
</g>
<g>
</g>
<g>
</g>
<g>
</g>
<g>
</g>
<g>
</g>
<g>
</g>
</svg>
