<svg width="225" height="86" viewBox="0 0 225 86" xmlns="http://www.w3.org/2000/svg"><title>moon + stars</title><desc>Created with Sketch.</desc><g fill="none"><path d="M104.307 50.07c-1.025-7.282.979-14.071 4.891-19.204 1.839-2.417 1.013-3.678-1.848-2.908-12.545 3.373-21.675 15.628-20.838 29.987.862 14.778 12.638 26.754 26.795 27.276 9.923.368 18.734-4.696 23.936-12.567 1.688-2.553.86-3.821-1.953-2.829-3.328 1.173-6.984 1.597-10.801 1.051-10.298-1.472-18.667-10.057-20.183-20.807z" fill="#09376C"/><g transform="translate(-870 -878) translate(870 878)"><path d="M81.242 79.649h-.94l-.294-.878c-.051-.157-.2-.264-.368-.264-.169 0-.317.108-.37.264l-.289.878h-.94c-.169 0-.318.107-.37.264-.053.157.005.328.14.428l.761.545-.29.875c-.053.159.005.33.14.428.068.05.148.073.228.073.081 0 .16-.023.228-.073l.761-.541.764.542c.137.096.32.098.457-.002.137-.098.193-.269.14-.428l-.292-.875.761-.545c.135-.099.194-.27.14-.428-.051-.157-.199-.264-.368-.264z" fill="#6057BE" opacity=".826"/><path d="M152.922 22.476h-.94l-.294-.878c-.051-.157-.2-.264-.368-.264-.169 0-.317.108-.37.264l-.289.878h-.94c-.169 0-.318.107-.37.264-.053.157.005.328.14.428l.761.545-.29.875c-.053.159.005.33.14.428.068.05.148.073.228.073.081 0 .16-.023.228-.073l.761-.541.764.542c.137.096.32.098.457-.002.137-.098.193-.269.14-.428l-.292-.875.761-.545c.135-.099.194-.27.14-.428-.051-.157-.199-.264-.368-.264z" fill="#6057BE" opacity=".826"/><path d="M162.814 53.047h-1.519l-.475-1.42c-.083-.254-.324-.427-.595-.427-.274 0-.512.175-.598.427l-.467 1.42h-1.519c-.274 0-.515.173-.598.427-.085.254.008.531.226.692l1.23.882-.469 1.415c-.085.257.008.533.226.692.11.081.239.119.369.119.131 0 .259-.037.369-.119l1.23-.874 1.235.877c.221.156.517.158.738-.002.221-.158.311-.435.226-.692l-.472-1.415 1.23-.882c.218-.161.314-.437.226-.692-.083-.254-.321-.427-.595-.427z" fill="#90A5B7" opacity=".826"/><path d="M29.607 15.979h-2.613l-.816-2.443c-.143-.438-.557-.735-1.024-.735-.471 0-.881.302-1.028.735l-.803 2.443h-2.613c-.471 0-.886.297-1.028.735-.147.438.013.914.389 1.19l2.117 1.517-.808 2.435c-.147.442.013.918.389 1.19.19.14.41.204.635.204.225 0 .445-.064.635-.204l2.117-1.504 2.125 1.509c.38.268.89.272 1.27-.004.38-.272.536-.748.389-1.19l-.812-2.435 2.117-1.517c.376-.276.54-.752.389-1.19-.143-.438-.553-.735-1.024-.735z" fill="#90A5B7" opacity=".6"/><path d="M191.869 18.576c-.102-.243-.31-.432-.568-.521-1.53-.522-2.813-1.787-3.608-3.553-.353-.799-.605-1.683-.748-2.626-.068-.449-.474-.783-.948-.783h-.002c-.477 0-.881.332-.949.781-.476 3.101-2.105 5.413-4.358 6.182-.381.13-.635.475-.635.859 0 .385.253.73.635.86 2.253.77 3.882 3.081 4.358 6.181.068.449.472.781.949.781h.002c.474 0 .88-.333.948-.781.143-.944.395-1.827.745-2.621.798-1.772 2.081-3.036 3.611-3.56.232-.079.423-.241.533-.45.125-.233.136-.506.035-.749" fill="#68AAE3" opacity=".565"/><path d="M55.336 51.003c-.102-.243-.31-.432-.568-.521-1.53-.522-2.813-1.787-3.608-3.553-.353-.799-.605-1.683-.748-2.626-.068-.449-.474-.783-.948-.783h-.002c-.477 0-.881.332-.949.781-.476 3.101-2.105 5.413-4.358 6.182-.381.13-.635.475-.635.859 0 .385.253.73.635.86 2.253.77 3.882 3.081 4.358 6.181.068.449.472.781.949.781h.002c.474 0 .88-.333.948-.781.143-.944.395-1.827.745-2.621.798-1.772 2.081-3.036 3.611-3.56.232-.079.423-.241.533-.45.125-.233.136-.506.035-.749" fill="#68AAE3" opacity=".2"/><path fill="#C9EBEB" opacity=".606" d="M195.424 46.08l-2.571 2.484 2.525 2.53 2.572-2.485-2.526-2.529"/><path fill="#C9EBEB" opacity=".606" d="M75.958 0l-2.571 2.484 2.525 2.53 2.572-2.485-2.526-2.529"/><ellipse fill="#fff" opacity=".265" cx="71.647" cy="56.149" rx="1.968" ry="1.936"/><g fill="#FF9F00"><path d="M126.678 33.906c0 .583.481 1.056 1.073 1.056.593 0 1.073-.473 1.073-1.056v-11.368c0-.583-.481-1.056-1.073-1.056-.593 0-1.073.473-1.073 1.056v11.368z" id="Path-47"/><path d="M132.098 29.278c.593 0 1.073-.473 1.073-1.056 0-.583-.481-1.056-1.073-1.056h-8.694c-.593 0-1.073.473-1.073 1.056 0 .583.481 1.056 1.073 1.056h8.694z" id="Path-48"/></g><g id="Path-47-+-Path-48-Copy" opacity=".5" fill="#FF9F00"><path d="M2.584 73.418c0 .318.267.576.596.576.329 0 .596-.258.596-.576v-6.201c0-.318-.267-.576-.596-.576-.329 0-.596.258-.596.576v6.201z" id="Path-47"/><path d="M5.595 70.911c.329 0 .596-.262.596-.585 0-.323-.267-.585-.596-.585h-4.83c-.329 0-.596.262-.596.585 0 .323.267.585.596.585h4.83z" id="Path-48"/></g><g opacity=".5" fill="#FF9F00"><path d="M221.037 66.591c0 .318.267.576.596.576.329 0 .596-.258.596-.576v-6.201c0-.318-.267-.576-.596-.576-.329 0-.596.258-.596.576v6.201z"/><path d="M224.049 64.084c.329 0 .596-.262.596-.585 0-.323-.267-.585-.596-.585h-4.83c-.329 0-.596.262-.596.585 0 .323.267.585.596.585h4.83z"/></g></g></g></svg>