<?xml version="1.0" encoding="UTF-8" standalone="no"?>
<!-- Generator: Adobe Illustrator 19.0.0, SVG Export Plug-In . SVG Version: 6.00 Build 0)  -->

<svg
   xmlns:dc="http://purl.org/dc/elements/1.1/"
   xmlns:cc="http://creativecommons.org/ns#"
   xmlns:rdf="http://www.w3.org/1999/02/22-rdf-syntax-ns#"
   xmlns:svg="http://www.w3.org/2000/svg"
   xmlns="http://www.w3.org/2000/svg"
   xmlns:sodipodi="http://sodipodi.sourceforge.net/DTD/sodipodi-0.dtd"
   xmlns:inkscape="http://www.inkscape.org/namespaces/inkscape"
   version="1.1"
   id="Capa_1"
   x="0px"
   y="0px"
   viewBox="0 0 480 480"
   style="enable-background:new 0 0 480 480;"
   xml:space="preserve"
   sodipodi:docname="rem-white.svg"
   inkscape:version="0.92.4 (5da689c313, 2019-01-14)"><metadata
   id="metadata61"><rdf:RDF><cc:Work
       rdf:about=""><dc:format>image/svg+xml</dc:format><dc:type
         rdf:resource="http://purl.org/dc/dcmitype/StillImage" /><dc:title></dc:title></cc:Work></rdf:RDF></metadata><defs
   id="defs59" /><sodipodi:namedview
   pagecolor="#ffffff"
   bordercolor="#666666"
   borderopacity="1"
   objecttolerance="10"
   gridtolerance="10"
   guidetolerance="10"
   inkscape:pageopacity="0"
   inkscape:pageshadow="2"
   inkscape:window-width="2560"
   inkscape:window-height="982"
   id="namedview57"
   showgrid="false"
   inkscape:zoom="0.98333333"
   inkscape:cx="234.15445"
   inkscape:cy="212.67151"
   inkscape:window-x="0"
   inkscape:window-y="27"
   inkscape:window-maximized="1"
   inkscape:current-layer="Capa_1" />
<g
   id="g6"
   style="fill:#ffffff">
	<g
   id="g4"
   style="fill:#ffffff">
		<path
   d="M456,224c-14.133,0-24,6.301-24,15.32v27.505C419.333,241.793,399.85,224,376,224H152c-4.417-0.001-7.999,3.579-8,7.996    c0,0.001,0,0.003,0,0.004v48.067c0.045-13.052-5.201-26.075-15.586-35.583c-19.552-17.902-49.915-16.564-67.816,2.989    c-16.764,18.309-16.801,46.38-0.086,64.734c-4.612,0.508-8.968,2.38-12.512,5.375V115.199C48,104.434,37.461,96,24,96    s-24,8.434-24,19.199v345.602C0,471.566,10.539,480,24,480s24-8.434,24-19.199V408h384v56.68c0,9.019,9.867,15.32,24,15.32    s24-6.301,24-15.32V239.32C480,230.301,470.133,224,456,224z M32,460.801c-0.086,0.656-2.773,3.199-8,3.199    c-5.25,0-7.922-2.543-8-3.199V115.199c0.078-0.656,2.75-3.199,8-3.199c5.227,0,7.914,2.543,8,3.199V460.801z M160,240h216    c30.172,0,53.172,44.926,55.758,88H160V240z M144,280.083v38.56c-3.452-3.353-7.848-5.566-12.597-6.342    C139.793,303.137,143.956,291.6,144,280.083z M96,248c17.673,0,32,14.327,32,32c0,17.673-14.327,32-32,32s-32-14.327-32-32    C64.019,262.335,78.335,248.019,96,248z M432,392H48v-48.023c4.163-0.328,7.374-3.801,7.375-7.977    c-0.077-4.331,3.364-7.909,7.695-8h64.61c4.331,0.091,7.772,3.669,7.695,8c-0.001,4.417,3.579,7.999,7.996,8    c0.001,0,0.003,0,0.004,0H432V392z M464,462.594c-5.169,1.875-10.831,1.875-16,0V241.406c5.169-1.875,10.831-1.875,16,0V462.594z"
   id="path2"
   style="fill:#ffffff" />
	</g>
</g>



<g
   id="g26">
</g>
<g
   id="g28">
</g>
<g
   id="g30">
</g>
<g
   id="g32">
</g>
<g
   id="g34">
</g>
<g
   id="g36">
</g>
<g
   id="g38">
</g>
<g
   id="g40">
</g>
<g
   id="g42">
</g>
<g
   id="g44">
</g>
<g
   id="g46">
</g>
<g
   id="g48">
</g>
<g
   id="g50">
</g>
<g
   id="g52">
</g>
<g
   id="g54">
</g>
</svg>