<?xml version="1.0" encoding="UTF-8" standalone="no"?>
<!-- Generator: Adobe Illustrator 19.0.0, SVG Export Plug-In . SVG Version: 6.00 Build 0)  -->

<svg
   xmlns:dc="http://purl.org/dc/elements/1.1/"
   xmlns:cc="http://creativecommons.org/ns#"
   xmlns:rdf="http://www.w3.org/1999/02/22-rdf-syntax-ns#"
   xmlns:svg="http://www.w3.org/2000/svg"
   xmlns="http://www.w3.org/2000/svg"
   xmlns:sodipodi="http://sodipodi.sourceforge.net/DTD/sodipodi-0.dtd"
   xmlns:inkscape="http://www.inkscape.org/namespaces/inkscape"
   version="1.1"
   id="Capa_1"
   x="0px"
   y="0px"
   viewBox="0 0 480 480"
   style="enable-background:new 0 0 480 480;"
   xml:space="preserve"
   sodipodi:docname="restless.svg"
   inkscape:version="0.92.4 (5da689c313, 2019-01-14)"><metadata
   id="metadata61"><rdf:RDF><cc:Work
       rdf:about=""><dc:format>image/svg+xml</dc:format><dc:type
         rdf:resource="http://purl.org/dc/dcmitype/StillImage" /></cc:Work></rdf:RDF></metadata><defs
   id="defs59" /><sodipodi:namedview
   pagecolor="#ffffff"
   bordercolor="#666666"
   borderopacity="1"
   objecttolerance="10"
   gridtolerance="10"
   guidetolerance="10"
   inkscape:pageopacity="0"
   inkscape:pageshadow="2"
   inkscape:window-width="2560"
   inkscape:window-height="982"
   id="namedview57"
   showgrid="false"
   inkscape:zoom="0.34766083"
   inkscape:cx="1726.8721"
   inkscape:cy="299.54534"
   inkscape:window-x="0"
   inkscape:window-y="27"
   inkscape:window-maximized="1"
   inkscape:current-layer="Capa_1" />
<g
   id="g6">
	<g
   id="g4">
		<path
   d="M456,224c-14.133,0-24,6.301-24,15.32v27.505C419.333,241.793,399.85,224,376,224H152c-4.417-0.001-7.999,3.579-8,7.996    c0,0.001,0,0.003,0,0.004v48.067c0.045-13.052-5.201-26.075-15.586-35.583c-19.552-17.902-49.915-16.564-67.816,2.989    c-16.764,18.309-16.801,46.38-0.086,64.734c-4.612,0.508-8.968,2.38-12.512,5.375V115.199C48,104.434,37.461,96,24,96    s-24,8.434-24,19.199v345.602C0,471.566,10.539,480,24,480s24-8.434,24-19.199V408h384v56.68c0,9.019,9.867,15.32,24,15.32    s24-6.301,24-15.32V239.32C480,230.301,470.133,224,456,224z M32,460.801c-0.086,0.656-2.773,3.199-8,3.199    c-5.25,0-7.922-2.543-8-3.199V115.199c0.078-0.656,2.75-3.199,8-3.199c5.227,0,7.914,2.543,8,3.199V460.801z M160,240h216    c30.172,0,53.172,44.926,55.758,88H160V240z M144,280.083v38.56c-3.452-3.353-7.848-5.566-12.597-6.342    C139.793,303.137,143.956,291.6,144,280.083z M96,248c17.673,0,32,14.327,32,32c0,17.673-14.327,32-32,32s-32-14.327-32-32    C64.019,262.335,78.335,248.019,96,248z M432,392H48v-48.023c4.163-0.328,7.374-3.801,7.375-7.977    c-0.077-4.331,3.364-7.909,7.695-8h64.61c4.331,0.091,7.772,3.669,7.695,8c-0.001,4.417,3.579,7.999,7.996,8    c0.001,0,0.003,0,0.004,0H432V392z M464,462.594c-5.169,1.875-10.831,1.875-16,0V241.406c5.169-1.875,10.831-1.875,16,0V462.594z"
   id="path2" />
	</g>
</g>



<g
   id="g26">
</g>
<g
   id="g28">
</g>
<g
   id="g30">
</g>
<g
   id="g32">
</g>
<g
   id="g34">
</g>
<g
   id="g36">
</g>
<g
   id="g38">
</g>
<g
   id="g40">
</g>
<g
   id="g42">
</g>
<g
   id="g44">
</g>
<g
   id="g46">
</g>
<g
   id="g48">
</g>
<g
   id="g50">
</g>
<g
   id="g52">
</g>
<g
   id="g54">
</g>
<g
   id="g92"
   transform="matrix(0.64544822,-0.52658995,0.52658995,0.64544822,-131.33125,262.67493)"
   style="stroke:none"><path
     id="path67"
     d="m 253.39844,113.98047 c 0.89062,0.24609 1.78515,0.36328 2.66406,0.36328 4.38672,0 8.41406,-2.91016 9.63281,-7.34375 l 12.28516,-44.554688 8.52734,8.527344 c 2.46485,2.464844 6.03516,3.46875 9.42578,2.648438 3.38672,-0.820313 6.10157,-3.34375 7.16797,-6.664063 l 17.30078,-53.898437 c 1.6875,-5.257813 -1.20703,-10.890625 -6.46484,-12.578125 -5.25781,-1.6875 -10.89063,1.207031 -12.57813,6.464843 l -12.29296,38.300782 -9.08985,-9.089844 c -2.51562,-2.515625 -6.17968,-3.503906 -9.625,-2.597656 -3.4414,0.910156 -6.14062,3.578125 -7.08593,7.011718 l -16.85157,61.109378 c -1.46484,5.32812 1.66016,10.83594 6.98438,12.30078 z m 0,0"
     inkscape:connector-curvature="0"
     style="stroke:none" /><path
     id="path71"
     d="m 460.87109,111.40625 c 1.85938,1.87109 4.4375,2.93359 7.07032,2.93359 2.6289,0 5.20703,-1.0625 7.07031,-2.93359 1.85937,-1.85937 2.92969,-4.42969 2.92969,-7.06641 0,-2.63281 -1.07032,-5.210934 -2.92969,-7.070309 -1.86328,-1.863281 -4.44141,-2.933593 -7.07031,-2.933593 -2.63282,0 -5.21094,1.070312 -7.07032,2.933593 -1.86328,1.859375 -2.93359,4.437499 -2.93359,7.070309 0,2.63672 1.07031,5.20704 2.93359,7.06641 z m 0,0"
     inkscape:connector-curvature="0"
     style="stroke:none" /><path
     id="path73"
     d="m 440.41406,117.92969 c -2.44531,-4.95313 -8.4414,-6.98438 -13.39453,-4.53906 l -37.33203,18.42578 c -2.89063,1.42578 -4.91406,4.16015 -5.4375,7.33984 -0.52344,3.18359 0.51562,6.42187 2.79297,8.69922 l 14.125,14.125 -47.03125,23.16797 c -4.95313,2.4414 -6.99219,8.4375 -4.55078,13.39062 1.74219,3.53516 5.28906,5.58203 8.98047,5.58203 1.48047,0 2.98828,-0.32812 4.41015,-1.02734 l 59.55469,-29.33984 c 2.89453,-1.42579 4.92187,-4.16016 5.44922,-7.33985 0.52344,-3.18359 -0.51563,-6.42187 -2.79688,-8.70312 l -14.13281,-14.13282 24.82031,-12.2539 c 4.95313,-2.44531 6.98438,-8.44141 4.54297,-13.39453 z m 0,0"
     inkscape:connector-curvature="0"
     style="stroke:none" /><path
     id="path75"
     d="m 315.25,145.58594 c 1.60937,0.96484 3.38281,1.42578 5.13672,1.42578 3.39453,0 6.70703,-1.73047 8.58203,-4.85547 l 37.02734,-61.695312 19.42969,19.480468 c 2.11719,2.121094 5.07031,3.183594 8.05469,2.894534 2.98047,-0.29297 5.67578,-1.90235 7.33984,-4.394534 L 456.25,15.5625 C 459.32031,10.972656 458.08984,4.761719 453.5,1.691406 448.90625,-1.375 442.69531,-0.144531 439.625,4.445312 L 390.97656,77.183594 371.10547,57.253906 c -2.17578,-2.183594 -5.24219,-3.242187 -8.29688,-2.863281 -3.05859,0.375 -5.77343,2.136719 -7.35937,4.78125 l -43.62891,72.691405 c -2.84375,4.73828 -1.30859,10.87891 3.42969,13.72266 z m 0,0"
     inkscape:connector-curvature="0"
     style="stroke:none" /></g></svg>