<?xml version="1.0" encoding="UTF-8" standalone="no"?>
<svg
   xmlns:dc="http://purl.org/dc/elements/1.1/"
   xmlns:cc="http://creativecommons.org/ns#"
   xmlns:rdf="http://www.w3.org/1999/02/22-rdf-syntax-ns#"
   xmlns:svg="http://www.w3.org/2000/svg"
   xmlns="http://www.w3.org/2000/svg"
   xmlns:sodipodi="http://sodipodi.sourceforge.net/DTD/sodipodi-0.dtd"
   xmlns:inkscape="http://www.inkscape.org/namespaces/inkscape"
   id="Capa_1"
   enable-background="new 0 0 512 512"
   height="512"
   viewBox="0 0 512 512"
   width="512"
   version="1.1"
   sodipodi:docname="sleep-white-v2.svg"
   inkscape:version="0.92.4 (5da689c313, 2019-01-14)">
  <metadata
     id="metadata23">
    <rdf:RDF>
      <cc:Work
         rdf:about="">
        <dc:format>image/svg+xml</dc:format>
        <dc:type
           rdf:resource="http://purl.org/dc/dcmitype/StillImage" />
        <dc:title></dc:title>
      </cc:Work>
    </rdf:RDF>
  </metadata>
  <defs
     id="defs21" />
  <sodipodi:namedview
     pagecolor="#ffffff"
     bordercolor="#666666"
     borderopacity="1"
     objecttolerance="10"
     gridtolerance="10"
     guidetolerance="10"
     inkscape:pageopacity="0"
     inkscape:pageshadow="2"
     inkscape:window-width="2522"
     inkscape:window-height="1016"
     id="namedview19"
     showgrid="false"
     inkscape:zoom="0.32593203"
     inkscape:cx="-1391.6197"
     inkscape:cy="-366.3355"
     inkscape:window-x="38"
     inkscape:window-y="27"
     inkscape:window-maximized="1"
     inkscape:current-layer="Capa_1" />
  <path
     d="m139.538 425.379c-27.121-5.504-55.262-4.714-81.382 2.285l-31.934 8.557c-4.508 1.207-7.549-1.218-8.648-2.317s-3.525-4.141-2.317-8.648l9.496-35.439c6.852-25.571 7.986-52.212 3.279-77.044-1.87-9.862-2.818-20.363-2.818-31.211s.948-21.349 2.818-31.212c4.707-24.831 3.573-51.472-3.279-77.044l-9.496-35.439c-1.208-4.507 1.218-7.549 2.317-8.648 1.099-1.098 4.14-3.525 8.647-2.317l31.935 8.557c18.364 4.92 37.442 6.794 56.704 5.566 4.115-.262 7.238-3.81 6.976-7.925s-3.815-7.243-7.925-6.976c-17.639 1.124-35.098-.589-51.89-5.088l-31.935-8.557c-8.338-2.234-16.964.077-23.069 6.181-6.106 6.106-8.416 14.73-6.182 23.071l9.496 35.439c6.275 23.417 7.323 47.76 3.032 70.399-2.043 10.777-3.079 22.213-3.079 33.992s1.036 23.215 3.079 33.992c4.291 22.64 3.242 46.984-3.032 70.399l-9.496 35.439c-2.234 8.34.076 16.965 6.182 23.07 4.573 4.573 10.558 7.017 16.779 7.017 2.085 0 4.197-.275 6.29-.835l31.934-8.557c23.901-6.404 49.68-7.122 74.548-2.075 4.04.819 7.981-1.791 8.801-5.831.821-4.04-1.79-7.981-5.831-8.801z"
     id="path2"
     style="fill:#ffffff" />
  <path
     d="m 501.669,385.953 c -6.275,-23.416 -7.323,-47.759 -3.032,-70.399 2.043,-10.777 3.079,-22.214 3.079,-33.992 0,-11.778 -1.036,-23.214 -3.079,-33.992 -4.291,-22.639 -3.243,-46.982 3.032,-70.399 l 9.496,-35.439 c 2.234,-8.34 -0.076,-16.965 -6.182,-23.07 -6.105,-6.105 -14.729,-8.415 -23.07,-6.182 l -31.934,8.557 c -27.317,7.321 -56.62,7.208 -84.741,-0.322 -31.594,-8.46 -68.347,-12.75 -109.239,-12.75 -40.892,0 -77.645,4.29 -109.239,12.75 -3.983,1.066 -6.347,5.16 -5.28,9.142 1.066,3.983 5.159,6.348 9.142,5.28 30.334,-8.123 65.788,-12.241 105.377,-12.241 39.589,0 75.042,4.119 105.377,12.241 30.647,8.208 62.622,8.318 92.467,0.322 l 31.934,-8.557 c 4.505,-1.209 7.548,1.218 8.648,2.317 1.099,1.099 3.525,4.141 2.317,8.648 l -9.496,35.439 c -6.852,25.572 -7.986,52.213 -3.279,77.044 1.869,9.863 2.817,20.364 2.817,31.212 0,10.848 -0.948,21.349 -2.817,31.211 -4.707,24.831 -3.573,51.473 3.279,77.044 l 9.496,35.439 c 1.208,4.507 -1.218,7.549 -2.317,8.648 -1.099,1.098 -4.14,3.526 -8.647,2.317 l -31.934,-8.557 c -29.844,-7.996 -61.818,-7.885 -92.468,0.322 -5.103,1.367 -10.389,2.625 -15.81,3.771 -5.04591,5.05652 -9.33052,12.32473 -12.343,17.515 11.131,-1.847 21.901,-4.153 32.016,-6.863 28.121,-7.531 57.423,-7.642 84.74,-0.322 l 31.935,8.557 c 2.093,0.561 4.204,0.835 6.289,0.835 6.221,0 12.207,-2.444 16.78,-7.017 6.106,-6.106 8.416,-14.73 6.182,-23.07 z"
     id="path4"
     inkscape:connector-curvature="0"
     sodipodi:nodetypes="ccsccccccsscccscccccccsccccccccccccsscc"
     style="fill:#ffffff" />
  <path
     d="m 175.78485,450.5169 c 0,11.95354 6.85733,15.87174 18.61388,15.87174 h 87.19511 c 9.20943,0 16.65576,-4.70419 16.65576,-13.51966 0,-8.81741 -7.44633,-13.52159 -16.65576,-13.52159 h -62.70099 l 73.87049,-87.78215 c 2.94109,-3.33115 4.5072,-7.64137 4.5072,-11.55956 0,-11.16951 -6.66231,-14.6957 -14.89072,-14.6957 h -84.64797 c -9.20944,0 -16.65578,4.70223 -16.65578,13.51965 0,8.81741 7.44634,13.5216 16.65578,13.5216 h 56.04061 l -72.69639,85.82207 c -2.93913,3.52617 -5.29122,7.24936 -5.29122,12.3436 z"
     id="path12"
     inkscape:connector-curvature="0"
     style="stroke-width:1.95032418;fill:#ffffff" />
  <path
     d="m 404.42291,206.7044 h 41.64283 c 3.02251,0 6.6043,-1.67904 6.6043,-6.38059 0,-4.70155 -3.58179,-6.38059 -6.6043,-6.38059 H 419.1999 l 30.22392,-33.13577 c 1.56718,-1.67904 2.57508,-3.69484 2.57508,-5.48574 0,-4.25412 -2.35137,-7.16477 -6.71735,-7.16477 h -38.84403 c -3.02251,0 -6.6043,1.68023 -6.6043,6.38178 0,4.70155 3.58179,6.38059 6.6043,6.38059 h 23.62081 l -30.7844,33.47014 c -1.45532,1.56719 -2.12647,3.5818 -2.12647,5.93316 0,3.24743 2.46205,6.38179 7.27545,6.38179 z"
     id="path14"
     inkscape:connector-curvature="0"
     style="stroke-width:1.18996501;fill:#ffffff" />
  <path
     d="m 369.24175,106.77745 h 25.79483 c 1.8726,0 4.09096,-1.04023 4.09096,-3.95208 0,-2.91282 -2.21934,-3.952059 -4.09096,-3.952059 h -16.64164 l 18.72209,-20.524752 c 0.97126,-1.040226 1.59481,-2.288298 1.59481,-3.397478 0,-2.635041 -1.45592,-4.437704 -4.1609,-4.437704 h -24.06112 c -1.8726,0 -4.09096,1.040226 -4.09096,3.953053 0,2.912828 2.21934,3.952068 4.09096,3.952068 h 14.63112 l -19.06883,20.732597 c -0.90133,0.971275 -1.31702,2.219345 -1.31702,3.675265 0,2.00953 1.52586,3.95109 4.50666,3.95109 z"
     id="path16"
     inkscape:connector-curvature="0"
     style="stroke-width:0.98506182;fill:#ffffff" />
  <path
     d="m 350.31768,322.56877 h 53.0329 c 3.84922,0 8.4107,-2.13829 8.4107,-8.1258 0,-5.98751 -4.56148,-8.1258 -8.4107,-8.1258 h -34.21414 l 38.49072,-42.199 c 1.99583,-2.13829 3.27941,-4.70545 3.27941,-6.98619 0,-5.4177 -2.99451,-9.12447 -8.55467,-9.12447 h -49.46858 c -3.84922,0 -8.4107,2.1398 -8.4107,8.12731 0,5.98751 4.56148,8.1258 8.4107,8.1258 h 30.08153 l -39.20449,42.62484 c -1.85338,1.99584 -2.7081,4.56149 -2.7081,7.55599 0,4.13565 3.13546,8.12732 9.26542,8.12732 z"
     id="path14-3"
     inkscape:connector-curvature="0"
     style="stroke-width:1.51544213;fill:#ffffff" />
</svg>
