<?xml version="1.0" encoding="UTF-8" standalone="no"?>
<!-- Generator: Adobe Illustrator 16.0.0, SVG Export Plug-In . SVG Version: 6.00 Build 0)  -->

<svg
   xmlns:dc="http://purl.org/dc/elements/1.1/"
   xmlns:cc="http://creativecommons.org/ns#"
   xmlns:rdf="http://www.w3.org/1999/02/22-rdf-syntax-ns#"
   xmlns:svg="http://www.w3.org/2000/svg"
   xmlns="http://www.w3.org/2000/svg"
   xmlns:sodipodi="http://sodipodi.sourceforge.net/DTD/sodipodi-0.dtd"
   xmlns:inkscape="http://www.inkscape.org/namespaces/inkscape"
   version="1.1"
   id="Capa_1"
   x="0px"
   y="0px"
   width="515.458px"
   height="515.458px"
   viewBox="0 0 515.458 515.458"
   style="enable-background:new 0 0 515.458 515.458;"
   xml:space="preserve"
   sodipodi:docname="steps-black.svg"
   inkscape:version="0.92.4 (5da689c313, 2019-01-14)"><metadata
   id="metadata41"><rdf:RDF><cc:Work
       rdf:about=""><dc:format>image/svg+xml</dc:format><dc:type
         rdf:resource="http://purl.org/dc/dcmitype/StillImage" /></cc:Work></rdf:RDF></metadata><defs
   id="defs39" /><sodipodi:namedview
   pagecolor="#ffffff"
   bordercolor="#666666"
   borderopacity="1"
   objecttolerance="10"
   gridtolerance="10"
   guidetolerance="10"
   inkscape:pageopacity="0"
   inkscape:pageshadow="2"
   inkscape:window-width="2560"
   inkscape:window-height="982"
   id="namedview37"
   showgrid="false"
   inkscape:zoom="0.45784525"
   inkscape:cx="262.09729"
   inkscape:cy="247.90036"
   inkscape:window-x="0"
   inkscape:window-y="27"
   inkscape:window-maximized="1"
   inkscape:current-layer="Capa_1" />
<g
   id="g4"
   style="fill:#333333;fill-opacity:1">
	<path
   d="M298.794,386.711c27.805,9.522,52.357,15.587,87.633,26.427C372.875,584.374,210.952,516.371,298.794,386.711z    M443.366,229.409c-1.826-51.415-10.882-118.86-83.017-108.292c-33.815,8.825-58.8,45.962-70.551,110.035   c-6.454,35.229-2.701,84.678,4.912,114.32c6.951,20.889,4.587,19.605,12.058,23.572c28.916,6.514,57.542,13.725,86.693,21.078   C423.075,369.209,447.397,258.182,443.366,229.409z M220.752,225.463c7.607-29.646,11.36-79.095,4.909-114.32   C213.919,47.067,188.931,9.924,155.11,1.105C82.975-9.463,73.919,57.981,72.093,109.399   c-4.031,28.768,20.294,139.802,49.911,160.711c29.149-7.353,57.771-14.558,86.696-21.078   C216.162,245.069,213.798,246.352,220.752,225.463z M129.029,293.132c13.547,171.234,175.47,103.231,87.63-26.427   C188.854,276.228,164.304,282.292,129.029,293.132z"
   id="path2"
   style="fill:#333333;fill-opacity:1" />
</g>
<g
   id="g6">
</g>
<g
   id="g8">
</g>
<g
   id="g10">
</g>
<g
   id="g12">
</g>
<g
   id="g14">
</g>
<g
   id="g16">
</g>
<g
   id="g18">
</g>
<g
   id="g20">
</g>
<g
   id="g22">
</g>
<g
   id="g24">
</g>
<g
   id="g26">
</g>
<g
   id="g28">
</g>
<g
   id="g30">
</g>
<g
   id="g32">
</g>
<g
   id="g34">
</g>
</svg>